{"glyphs":{"0":{"ha":556,"x_min":25,"x_max":529,"o":"m 529 253 q 455 74 529 149 q 278 0 381 0 q 100 74 174 0 q 25 253 26 149 l 25 789 q 99 967 25 893 q 276 1040 174 1040 q 454 966 379 1040 q 529 789 529 892 l 529 253 l 529 253 m 465 253 l 465 789 q 410 922 465 865 q 276 978 354 978 q 144 922 200 978 q 89 789 89 867 l 89 253 q 144 118 89 174 q 278 63 199 63 q 410 119 356 63 q 465 253 465 175 l 465 253 z "},"1":{"ha":556,"x_min":188,"x_max":311,"o":"m 311 0 l 249 0 l 249 978 l 188 978 l 188 1042 l 300 1042 l 311 1040 l 311 0 l 311 0 z "},"2":{"ha":556,"x_min":25,"x_max":528,"o":"m 528 792 q 515 715 528 750 q 482 644 501 679 l 143 56 l 521 56 l 521 1 l 111 1 l 39 0 l 440 696 q 457 734 451 714 q 465 775 463 754 q 465 783 465 779 q 465 792 465 788 q 410 924 465 869 q 276 979 354 979 q 143 923 199 979 q 88 790 88 867 q 88 784 88 788 q 88 778 88 781 q 117 690 92 732 q 182 628 142 649 l 151 572 q 60 663 94 604 q 25 789 25 722 q 98 967 25 892 q 275 1042 171 1042 q 453 969 378 1042 q 528 792 528 896 l 528 792 z "},"3":{"ha":556,"x_min":24,"x_max":531,"o":"m 531 793 q 494 666 531 725 q 397 574 457 607 q 513 440 496 515 q 529 261 529 365 q 529 258 529 260 q 529 253 529 256 q 455 74 529 149 q 278 0 381 0 q 100 74 176 0 q 25 253 24 149 l 89 253 q 144 119 86 175 q 278 63 201 63 q 428 137 393 63 q 465 300 463 211 q 467 326 467 313 q 467 353 467 340 q 410 488 467 431 q 278 543 354 544 q 277 543 278 543 q 276 544 276 543 q 276 544 276 544 q 275 544 275 544 l 275 607 q 408 660 350 607 q 467 793 467 714 q 410 924 467 869 q 278 979 353 979 q 168 944 218 979 q 99 853 118 910 l 33 853 q 124 988 54 935 q 278 1042 193 1042 q 455 969 379 1042 q 531 793 531 896 l 531 793 z "},"4":{"ha":556,"x_min":25,"x_max":529,"o":"m 529 311 l 419 311 l 419 0 l 357 0 l 357 313 l 25 313 l 208 875 l 272 875 l 110 378 l 357 378 l 357 1042 l 419 1042 l 419 378 l 529 378 l 529 311 l 529 311 z "},"5":{"ha":556,"x_min":64,"x_max":507,"o":"m 507 361 q 399 104 507 208 q 140 0 292 0 q 122 1 132 0 q 103 1 113 1 q 85 4 94 3 q 69 8 76 6 l 69 68 q 86 63 78 65 q 103 60 94 61 q 119 58 111 58 q 135 57 126 57 q 357 142 264 57 q 450 361 450 228 q 361 573 450 493 q 149 663 272 653 q 142 663 146 663 q 136 663 139 663 q 106 660 121 663 q 78 656 92 658 q 72 653 75 654 q 64 653 68 653 l 64 1042 l 303 1042 l 303 979 l 128 979 l 128 719 l 139 719 q 398 617 289 719 q 507 361 507 514 l 507 361 z "},"6":{"ha":556,"x_min":25,"x_max":528,"o":"m 528 253 q 455 75 528 150 q 278 0 382 0 q 101 73 176 0 q 25 250 25 146 q 25 259 25 254 q 26 269 25 264 q 37 326 28 297 q 60 378 46 354 l 444 1042 l 515 1042 l 197 490 q 203 492 200 492 q 208 493 206 493 q 219 496 214 494 q 232 499 225 497 q 249 501 240 500 q 265 503 257 503 q 450 434 372 503 q 528 253 528 365 l 528 253 m 465 253 q 410 385 465 331 q 278 440 356 440 q 144 385 199 440 q 89 251 89 329 q 144 118 89 174 q 278 63 200 63 q 410 119 356 63 q 465 253 465 175 l 465 253 z "},"7":{"ha":556,"x_min":-14,"x_max":542,"o":"m 542 1042 l 57 0 l -14 0 l 443 979 l 28 979 l 28 1042 l 542 1042 l 542 1042 z "},"8":{"ha":556,"x_min":26,"x_max":532,"o":"m 532 253 q 457 74 532 149 q 279 0 382 0 q 113 63 186 0 q 28 218 40 125 q 26 256 26 236 q 26 294 26 275 q 26 302 26 299 q 26 310 26 306 q 28 333 28 321 q 28 356 28 344 q 63 483 28 426 q 157 576 97 540 q 65 667 99 608 q 31 793 31 726 q 103 969 31 896 q 279 1042 176 1042 q 455 968 382 1042 q 528 793 528 894 q 493 667 528 725 q 400 576 458 608 q 515 440 499 517 q 532 261 532 364 q 532 258 532 260 q 532 253 532 256 l 532 253 m 468 253 l 468 356 q 416 485 468 432 q 290 544 364 538 q 288 544 289 544 q 286 544 288 544 q 283 544 285 544 q 279 544 281 544 q 277 544 279 544 q 274 544 275 544 q 270 544 272 544 q 268 544 268 544 q 142 485 194 540 q 90 356 90 429 l 90 253 q 145 118 90 174 q 279 63 200 63 q 413 118 357 63 q 468 253 468 174 l 468 253 m 461 793 q 408 922 461 867 q 279 976 354 976 q 149 923 203 976 q 96 793 96 869 q 149 664 96 717 q 279 611 203 611 q 408 665 354 611 q 461 793 461 718 l 461 793 z "},"9":{"ha":556,"x_min":28,"x_max":531,"o":"m 531 792 q 531 783 531 788 q 529 772 531 778 q 519 716 528 744 q 496 664 510 688 l 111 0 l 40 0 l 358 551 q 353 550 356 551 q 347 549 350 549 q 336 546 342 547 q 325 543 331 544 q 307 540 315 542 q 290 539 299 539 q 106 608 185 539 q 28 789 28 676 q 101 967 28 892 q 278 1042 174 1042 q 456 969 381 1042 q 531 792 531 896 l 531 792 m 467 790 q 411 924 467 868 q 278 979 356 979 q 145 923 200 979 q 90 789 90 867 q 146 657 90 713 q 278 601 201 601 q 412 658 357 601 q 467 790 467 714 l 467 790 z "}," ":{"ha":694,"x_min":0,"x_max":0,"o":""}," ":{"ha":694,"x_min":0,"x_max":0,"o":""},"!":{"ha":99,"x_min":4,"x_max":94,"o":"m 94 44 q 94 38 94 42 q 92 31 93 35 q 76 10 86 19 q 56 0 67 0 l 43 0 q 37 1 40 0 q 31 4 33 3 q 17 13 24 7 q 8 26 11 19 q 5 32 6 29 q 4 38 4 35 l 4 50 q 14 72 4 63 q 35 86 24 82 q 42 88 39 88 q 49 89 46 89 q 81 76 67 89 q 94 44 94 63 l 94 44 m 82 149 l 18 149 l 18 1042 l 82 1042 l 82 149 l 82 149 z "},"\"":{"ha":308,"x_min":17,"x_max":303,"o":"m 153 1075 q 161 1063 158 1069 q 164 1050 164 1057 q 161 1040 163 1044 q 157 1029 160 1035 l 50 807 l 17 819 q 29 869 19 833 q 50 946 39 906 q 55 965 53 956 q 60 983 57 974 q 80 1044 71 1018 q 96 1078 89 1071 q 108 1085 101 1083 q 122 1088 115 1088 q 140 1085 132 1088 q 153 1075 147 1082 l 153 1075 m 292 1075 q 300 1063 297 1069 q 303 1050 303 1057 q 300 1040 301 1044 q 296 1029 299 1035 l 189 807 l 156 819 q 168 869 158 833 q 189 946 178 906 q 194 965 192 956 q 199 983 196 974 q 219 1044 210 1018 q 235 1078 228 1071 q 247 1085 240 1083 q 261 1088 254 1088 q 278 1085 271 1088 q 292 1075 286 1082 l 292 1075 z "},"#":{"ha":692,"x_min":32,"x_max":661,"o":"m 661 661 l 640 599 l 469 599 l 440 496 l 615 496 l 596 433 l 422 433 l 299 0 l 236 0 l 358 433 l 265 433 l 142 0 l 79 0 l 201 433 l 32 433 l 51 496 l 219 496 l 249 599 l 78 599 l 96 661 l 265 661 l 374 1042 l 436 1042 l 329 661 l 424 661 l 531 1042 l 594 1042 l 486 661 l 661 661 l 661 661 m 406 599 l 311 599 l 282 496 l 376 496 l 406 599 l 406 599 z "},"$":{"ha":556,"x_min":13,"x_max":526,"o":"m 526 332 q 457 183 526 222 q 300 143 388 143 l 300 0 l 238 0 l 238 143 l 36 143 l 36 206 l 238 206 l 238 499 q 82 564 151 524 q 13 710 13 604 q 81 858 13 818 q 238 899 150 899 l 238 1042 l 300 1042 l 300 899 l 501 899 l 501 836 l 300 836 l 300 544 q 456 477 386 519 q 526 332 526 435 l 526 332 m 463 336 q 419 427 463 399 q 324 471 375 456 q 312 474 318 472 q 300 478 306 476 l 300 206 l 338 206 q 428 243 394 206 q 463 336 463 281 l 463 336 m 238 565 l 238 836 l 201 836 q 110 799 144 836 q 75 707 75 761 q 119 615 75 643 q 214 572 163 588 q 226 568 219 569 q 238 565 232 567 l 238 565 z "},"%":{"ha":556,"x_min":26,"x_max":514,"o":"m 514 149 q 470 44 514 89 q 365 0 426 0 q 260 44 303 0 q 217 149 217 88 q 260 254 217 210 q 365 299 304 299 q 470 254 426 299 q 514 149 514 210 l 514 149 m 458 149 q 430 214 458 186 q 365 242 401 242 q 299 215 326 242 q 272 149 272 188 q 299 83 272 110 q 365 56 326 56 q 431 83 403 56 q 458 149 458 110 l 458 149 m 486 1040 l 124 1 l 61 1 l 422 1040 l 486 1040 l 486 1040 m 325 893 q 281 788 325 832 q 176 744 238 744 q 70 788 114 744 q 26 893 26 832 q 71 998 26 954 q 176 1042 115 1042 q 281 998 236 1042 q 325 893 325 954 l 325 893 m 268 893 q 241 958 268 931 q 176 986 214 986 q 110 959 138 986 q 83 893 83 932 q 110 827 83 854 q 176 800 138 800 q 241 827 214 800 q 268 893 268 854 l 268 893 z "},"&":{"ha":669,"x_min":31,"x_max":689,"o":"m 689 0 l 63 0 l 63 61 l 689 61 l 689 0 l 689 0 m 653 93 q 541 127 593 93 q 461 213 489 161 q 377 125 431 157 q 261 93 324 93 q 123 140 185 93 q 40 261 61 188 q 34 295 36 278 q 32 331 32 313 q 31 357 31 343 q 32 383 32 371 q 32 398 32 390 q 32 413 32 406 q 64 531 32 478 q 151 614 96 583 q 64 698 96 643 q 32 813 32 753 q 100 974 32 907 q 261 1042 168 1042 q 422 974 356 1042 q 490 813 489 907 l 432 813 q 382 933 432 882 q 261 983 332 983 q 140 933 192 983 q 89 813 89 883 q 140 692 89 740 q 261 643 190 643 l 432 643 l 432 732 l 490 732 l 490 643 l 561 643 l 561 585 l 490 585 l 490 540 l 490 367 q 490 358 490 363 q 490 349 490 353 q 529 213 494 275 q 653 151 564 151 l 653 93 l 653 93 m 432 324 l 432 585 q 385 583 410 582 q 338 585 361 583 q 299 587 318 586 q 261 586 279 588 q 139 535 189 581 q 89 413 89 489 l 89 324 q 139 201 89 251 q 261 151 189 151 q 383 202 333 151 q 432 324 432 253 l 432 324 z "},"'":{"ha":154,"x_min":17,"x_max":164,"o":"m 153 1075 q 161 1063 158 1069 q 164 1050 164 1057 q 161 1040 163 1044 q 157 1029 160 1035 l 50 807 l 17 819 q 29 869 19 833 q 50 946 39 906 q 55 965 53 956 q 60 983 57 974 q 80 1044 71 1018 q 96 1078 89 1071 q 108 1085 101 1083 q 122 1088 115 1088 q 140 1085 132 1088 q 153 1075 147 1082 l 153 1075 z "},"(":{"ha":278,"x_min":18,"x_max":272,"o":"m 272 -278 q 119 -160 171 -272 q 43 85 67 -49 q 23 269 28 181 q 18 406 18 358 q 22 547 18 456 q 40 738 25 638 q 113 989 61 874 q 268 1111 165 1104 l 268 1035 q 165 926 203 1025 q 110 710 128 828 q 89 528 94 614 q 83 406 83 443 q 88 288 83 371 q 108 113 93 206 q 166 -99 128 -3 q 272 -199 204 -196 l 272 -278 l 272 -278 z "},")":{"ha":278,"x_min":22,"x_max":276,"o":"m 276 406 q 272 269 276 358 q 251 85 267 181 q 176 -160 228 -49 q 22 -276 124 -272 l 22 -200 q 128 -99 90 -196 q 186 113 167 -3 q 206 288 201 206 q 211 406 211 371 q 206 528 211 443 q 185 710 200 614 q 129 926 167 828 q 26 1035 92 1025 l 26 1111 q 181 989 129 1104 q 254 738 233 874 q 273 547 269 638 q 276 406 276 456 l 276 406 z "},"*":{"ha":422,"x_min":19,"x_max":403,"o":"m 403 882 q 387 843 403 860 q 347 826 371 826 q 328 833 338 826 q 310 846 319 839 q 292 859 301 853 q 275 865 283 865 l 240 865 l 257 836 q 270 824 261 828 q 289 815 279 819 q 292 815 290 815 q 294 814 293 814 q 322 799 310 808 q 335 764 335 789 q 319 724 335 740 q 279 708 303 708 q 243 722 260 708 q 226 756 226 735 q 227 767 226 761 q 229 778 228 772 q 231 789 231 783 q 232 800 232 794 q 228 818 232 810 q 221 833 225 826 q 218 839 219 836 q 214 844 217 842 q 213 847 214 846 q 211 850 213 849 q 208 844 210 847 q 204 838 206 840 q 203 835 204 836 q 201 833 203 835 q 194 817 197 825 q 190 800 190 810 q 191 789 190 794 q 193 778 192 783 q 194 765 193 771 q 194 754 194 760 q 177 720 194 731 q 139 708 160 710 q 137 708 138 708 q 135 708 136 708 q 103 724 115 708 q 89 757 92 739 q 88 764 88 760 q 88 771 88 768 q 100 799 88 790 q 128 813 113 807 q 129 813 129 813 q 131 813 129 813 q 150 822 140 817 q 165 835 160 826 l 182 865 l 147 865 q 134 862 140 865 q 121 854 128 858 q 116 850 118 851 q 111 846 114 849 q 92 833 103 839 q 67 826 82 826 q 39 839 51 826 q 22 867 26 851 q 20 874 21 871 q 19 882 19 878 q 36 921 19 904 q 75 938 53 938 q 88 935 83 938 q 99 928 93 932 q 104 924 101 926 q 111 918 107 921 q 136 905 121 911 q 182 899 151 899 l 164 929 q 151 942 160 938 q 132 950 142 946 q 130 950 131 950 q 128 951 129 950 q 100 966 113 957 q 88 1000 88 975 q 104 1040 88 1024 q 143 1056 121 1056 q 145 1056 144 1056 q 147 1056 146 1056 q 180 1041 165 1054 q 194 1008 194 1028 q 194 997 194 1003 q 193 986 193 992 q 191 975 192 981 q 190 964 190 969 q 193 947 190 954 q 200 933 196 940 q 203 927 201 931 q 208 921 206 924 q 209 918 208 919 q 211 915 210 917 q 217 924 214 919 q 222 933 219 929 q 228 947 225 940 q 231 964 231 954 q 230 975 231 969 q 229 986 229 981 q 227 997 228 992 q 226 1008 226 1003 q 241 1041 226 1028 q 274 1056 256 1054 q 276 1056 275 1056 q 278 1056 276 1056 q 317 1040 301 1056 q 333 1000 333 1024 q 321 967 333 976 q 293 950 308 957 q 290 949 292 950 q 286 949 288 949 q 269 940 276 944 q 257 929 261 936 l 239 899 l 275 899 q 291 903 283 899 q 306 914 299 908 q 308 916 307 915 q 311 918 310 917 q 328 931 319 925 q 347 938 338 938 q 386 921 369 938 q 403 882 403 904 l 403 882 z "},"+":{"ha":556,"x_min":14,"x_max":535,"o":"m 535 489 l 306 489 l 306 261 l 242 261 l 242 489 l 14 489 l 14 553 l 242 553 l 242 782 l 306 782 l 306 553 l 535 553 l 535 489 l 535 489 z "},",":{"ha":164,"x_min":29,"x_max":121,"o":"m 121 36 q 114 14 121 28 q 99 -17 107 0 q 96 -22 97 -19 q 93 -26 94 -24 q 76 -55 83 -42 q 65 -74 68 -68 l 29 -54 l 57 -6 q 39 11 47 0 q 31 36 31 22 q 44 69 31 54 q 75 83 57 83 q 108 69 96 83 q 121 36 121 56 l 121 36 z "},"-":{"ha":278,"x_min":21,"x_max":240,"o":"m 240 489 l 21 489 l 21 553 l 240 553 l 240 489 l 240 489 z "},".":{"ha":99,"x_min":4,"x_max":94,"o":"m 94 44 q 94 38 94 42 q 92 31 93 35 q 76 10 86 19 q 56 0 67 0 l 43 0 q 37 1 40 0 q 31 4 33 3 q 17 13 24 7 q 8 26 11 19 q 5 32 6 29 q 4 38 4 35 l 4 50 q 14 72 4 63 q 35 86 24 82 q 42 88 39 88 q 49 89 46 89 q 81 76 67 89 q 94 44 94 63 l 94 44 z "},"/":{"ha":417,"x_min":-53,"x_max":456,"o":"m 456 1111 l 11 -208 l -53 -208 l 392 1111 l 456 1111 l 456 1111 z "},":":{"ha":99,"x_min":4,"x_max":94,"o":"m 94 308 q 94 302 94 306 q 92 294 93 299 q 76 274 86 283 q 56 264 67 264 l 43 264 q 37 265 40 264 q 31 268 33 267 q 17 277 24 271 q 8 290 11 283 q 5 296 6 293 q 4 301 4 299 l 4 314 q 14 336 4 326 q 35 350 24 346 q 42 352 39 351 q 49 353 46 353 q 81 340 67 353 q 94 308 94 326 l 94 308 m 94 572 q 94 566 94 569 q 92 558 93 563 q 76 538 86 547 q 56 528 67 528 l 43 528 q 37 529 40 528 q 31 532 33 531 q 17 541 24 535 q 8 554 11 547 q 5 560 6 557 q 4 565 4 563 l 4 578 q 14 600 4 590 q 35 614 24 610 q 42 616 39 615 q 49 617 46 617 q 81 603 67 617 q 94 572 94 590 l 94 572 z "},";":{"ha":164,"x_min":29,"x_max":122,"o":"m 121 286 q 114 263 121 278 q 99 232 107 249 q 96 227 97 229 q 93 222 94 225 q 76 194 83 207 q 65 175 68 181 l 29 196 l 57 244 q 39 260 47 249 q 31 286 31 272 q 44 319 31 304 q 75 333 57 333 q 108 319 96 333 q 121 286 121 306 l 121 286 m 122 572 q 122 566 122 569 q 119 558 121 563 q 104 538 114 547 q 83 528 94 528 l 71 528 q 65 529 68 528 q 58 532 61 531 q 45 541 51 535 q 36 554 39 547 q 33 560 33 557 q 32 565 32 563 l 32 578 q 42 600 32 590 q 63 614 51 610 q 70 616 67 615 q 76 617 74 617 q 108 603 94 617 q 122 572 122 590 l 122 572 z "},"<":{"ha":556,"x_min":26,"x_max":506,"o":"m 506 190 l 26 467 l 26 524 l 506 800 l 506 721 l 139 494 l 506 268 l 506 190 l 506 190 z "},"=":{"ha":556,"x_min":14,"x_max":535,"o":"m 535 378 l 14 378 l 14 442 l 535 442 l 535 378 l 535 378 m 535 531 l 14 531 l 14 594 l 535 594 l 535 531 l 535 531 z "},">":{"ha":556,"x_min":29,"x_max":508,"o":"m 508 467 l 29 190 l 29 268 l 397 494 l 29 721 l 29 800 l 508 524 l 508 467 l 508 467 z "},"?":{"ha":544,"x_min":25,"x_max":519,"o":"m 246 43 q 245 37 246 40 q 243 31 244 33 q 229 10 239 19 q 207 0 219 0 l 194 0 q 189 1 192 0 q 183 3 186 1 q 170 13 176 7 q 160 26 164 19 q 158 32 158 29 q 157 38 157 35 l 157 50 q 167 72 157 61 q 190 86 178 82 q 197 88 193 88 q 203 89 200 89 q 233 75 219 89 q 246 43 246 61 l 246 43 m 519 785 q 474 651 519 715 q 374 526 428 586 q 274 413 319 467 q 228 313 228 360 l 228 140 l 165 140 l 165 313 q 211 436 165 378 q 313 550 257 494 q 413 665 367 607 q 458 788 458 724 q 408 921 458 861 q 281 981 358 981 q 147 931 207 981 q 86 803 86 881 q 102 720 86 760 q 153 653 118 681 l 113 604 q 46 694 67 640 q 25 803 25 747 q 104 975 25 908 q 282 1042 183 1042 q 453 963 388 1042 q 519 785 519 883 l 519 785 z "},"@":{"ha":556,"x_min":25,"x_max":529,"o":"m 529 311 q 502 249 529 271 q 438 226 475 226 q 426 228 432 226 q 414 232 421 229 q 391 246 401 238 q 375 264 381 254 q 330 236 353 246 q 278 226 307 226 q 177 268 218 226 q 136 369 136 310 l 136 674 q 178 775 136 733 q 278 817 219 817 q 315 811 297 817 q 349 797 332 806 q 355 794 351 796 q 361 790 358 792 l 361 815 l 421 815 l 421 314 q 428 297 421 303 q 446 290 436 290 q 461 297 456 290 q 467 314 467 304 l 467 789 q 411 923 467 867 q 278 979 356 979 q 144 923 200 979 q 89 789 89 867 l 89 253 q 144 118 89 174 q 278 63 200 63 q 392 101 340 63 q 460 200 444 140 l 524 200 q 436 57 506 114 q 278 0 367 0 q 99 74 174 0 q 25 253 25 147 l 25 789 q 99 967 25 893 q 278 1042 174 1042 q 455 967 381 1042 q 529 789 529 892 l 529 311 l 529 311 m 361 382 l 361 661 q 336 718 361 694 q 278 742 311 742 q 219 719 243 742 q 196 661 196 696 l 196 382 q 219 324 196 347 q 278 300 243 300 q 337 324 313 300 q 361 382 361 347 l 361 382 z "},"A":{"ha":556,"x_min":21,"x_max":525,"o":"m 525 3 l 463 3 l 463 319 l 83 319 l 83 3 l 21 3 l 21 792 q 94 971 21 897 q 272 1044 168 1044 q 450 969 375 1044 q 525 792 525 894 l 525 3 l 525 3 m 463 382 l 463 792 q 406 926 463 869 q 272 982 350 982 q 140 926 196 982 q 83 792 83 869 l 83 382 l 463 382 l 463 382 z "},"B":{"ha":556,"x_min":25,"x_max":531,"o":"m 531 189 q 456 40 531 79 q 289 0 381 0 l 78 0 l 25 1 l 25 1042 l 278 1042 q 455 967 381 1042 q 529 790 529 893 l 529 506 q 528 488 529 497 q 525 468 528 478 q 497 400 518 433 q 447 349 476 367 q 508 278 485 319 q 531 189 531 238 l 531 189 m 468 189 q 468 194 468 192 q 468 200 468 197 q 428 279 463 243 q 350 315 394 315 l 89 315 l 89 64 l 342 64 q 431 101 394 64 q 468 189 468 138 l 468 189 m 467 506 l 467 790 q 410 922 465 867 q 278 978 356 978 l 89 978 l 89 379 l 353 379 q 428 413 396 379 q 465 489 460 447 q 467 497 467 493 q 467 506 467 501 l 467 506 z "},"C":{"ha":556,"x_min":25,"x_max":531,"o":"m 531 253 q 456 74 531 149 q 278 0 382 0 q 100 74 174 0 q 26 253 26 149 l 25 789 q 100 967 25 893 q 278 1042 175 1042 q 456 967 381 1042 q 531 789 531 892 l 531 599 l 467 599 q 467 622 467 610 q 467 646 467 633 q 468 688 468 667 q 467 731 468 710 q 430 901 464 824 q 278 978 396 978 q 144 922 200 978 q 89 789 89 867 l 89 253 q 144 118 89 174 q 278 63 200 63 q 411 119 356 63 q 467 253 467 175 l 531 253 l 531 253 z "},"D":{"ha":556,"x_min":25,"x_max":531,"o":"m 531 253 q 456 74 531 149 q 278 0 382 0 l 25 0 l 25 1042 l 278 1042 q 455 967 381 1042 q 529 790 529 893 l 531 253 l 531 253 m 467 253 l 467 790 q 410 922 465 867 q 278 978 356 978 l 89 978 l 89 64 l 278 64 q 411 119 356 64 q 467 253 467 175 l 467 253 z "},"E":{"ha":486,"x_min":22,"x_max":465,"o":"m 465 315 l 86 315 l 86 118 q 101 84 86 99 q 135 65 117 69 q 142 65 138 65 q 149 64 146 64 l 401 64 l 401 0 l 149 0 q 59 37 96 0 q 22 126 22 74 l 22 914 q 60 1004 22 967 q 149 1042 97 1042 l 401 1042 l 401 978 l 149 978 q 140 977 144 978 q 131 975 136 976 q 100 955 114 969 q 86 924 86 940 l 86 379 l 465 379 l 465 315 l 465 315 z "},"F":{"ha":501,"x_min":22,"x_max":465,"o":"m 465 315 l 86 315 l 86 0 l 22 0 l 24 915 q 60 1005 24 968 q 149 1042 97 1042 l 401 1042 l 401 978 l 149 978 q 139 976 144 978 q 128 974 133 975 q 99 953 113 967 q 86 924 86 940 l 86 379 l 465 379 l 465 315 l 465 315 z "},"G":{"ha":556,"x_min":25,"x_max":531,"o":"m 531 253 q 456 74 531 149 q 278 0 382 0 q 100 74 174 0 q 26 253 26 149 l 25 789 q 100 967 25 893 q 278 1042 175 1042 q 456 967 381 1042 q 531 789 531 892 l 531 599 l 467 599 q 467 622 467 610 q 467 646 467 633 q 468 688 468 667 q 467 731 468 710 q 430 901 464 824 q 278 978 396 978 q 144 922 200 978 q 89 789 89 867 l 89 253 q 144 118 89 174 q 278 63 200 63 q 431 142 393 63 q 467 315 469 221 l 215 315 l 215 378 l 531 378 l 531 253 l 531 253 z "},"H":{"ha":556,"x_min":25,"x_max":531,"o":"m 531 0 l 467 0 l 467 315 l 89 315 l 89 0 l 25 0 l 25 1042 l 89 1042 l 89 379 l 467 379 l 467 1042 l 531 1042 l 531 0 l 531 0 z "},"I":{"ha":125,"x_min":31,"x_max":94,"o":"m 94 0 l 31 0 l 31 1042 l 94 1042 l 94 0 l 94 0 z "},"J":{"ha":278,"x_min":-1,"x_max":246,"o":"m 246 135 q 172 -40 246 35 q 0 -111 99 -114 l -1 -51 q 129 4 74 -53 q 185 135 185 61 l 185 1033 l 246 1033 l 246 135 l 246 135 z "},"K":{"ha":486,"x_min":22,"x_max":465,"o":"m 465 1 l 400 1 q 400 4 400 3 q 400 7 400 6 q 400 54 400 29 q 397 104 400 79 q 358 249 392 183 q 222 315 324 315 l 86 315 l 86 0 l 22 0 l 22 1042 l 86 1042 l 86 379 l 226 379 q 342 431 293 379 q 399 547 390 483 q 399 558 399 553 q 400 568 400 563 l 400 1042 l 464 1042 l 464 568 q 429 441 464 501 q 335 349 394 381 q 430 255 394 313 q 465 126 465 197 l 465 1 l 465 1 z "},"L":{"ha":486,"x_min":22,"x_max":465,"o":"m 465 0 l 149 0 q 60 37 97 0 q 22 126 22 74 l 22 1042 l 86 1042 l 86 126 q 104 82 86 100 q 149 64 122 64 l 465 64 l 465 0 l 465 0 z "},"M":{"ha":693,"x_min":32,"x_max":661,"o":"m 661 0 l 599 0 l 599 978 q 444 932 511 981 q 378 789 378 883 l 378 315 l 315 315 l 315 789 q 248 932 315 885 q 94 978 181 979 l 94 0 l 32 0 l 32 1040 q 211 1024 136 1040 q 346 911 286 1008 q 482 1024 400 1007 q 661 1042 564 1040 l 661 0 l 661 0 z "},"N":{"ha":521,"x_min":35,"x_max":475,"o":"m 475 0 l 413 0 l 413 600 q 322 843 411 740 q 97 974 233 946 l 97 0 l 35 0 l 35 1040 q 252 983 153 1042 q 413 824 351 924 l 413 1042 l 475 1042 l 475 0 l 475 0 z "},"O":{"ha":556,"x_min":25,"x_max":529,"o":"m 529 253 q 455 74 529 149 q 278 0 381 0 q 100 74 174 0 q 25 253 26 149 l 25 789 q 99 967 25 893 q 276 1040 174 1040 q 454 966 379 1040 q 529 789 529 892 l 529 253 l 529 253 m 465 253 l 465 789 q 410 922 465 865 q 276 978 354 978 q 144 922 200 978 q 89 789 89 867 l 89 253 q 144 118 89 174 q 278 63 199 63 q 410 119 356 63 q 465 253 465 175 l 465 253 z "},"P":{"ha":493,"x_min":24,"x_max":464,"o":"m 464 504 q 387 351 464 385 q 217 314 310 317 q 175 314 196 314 q 135 315 154 314 q 110 315 122 315 q 86 315 97 315 l 86 0 l 24 0 l 24 1040 l 211 1040 q 389 966 314 1040 q 464 789 464 892 l 464 504 l 464 504 m 401 504 l 400 789 q 344 922 400 865 q 211 978 289 978 l 86 978 l 86 378 l 275 378 q 365 415 328 378 q 401 504 401 453 l 401 504 z "},"Q":{"ha":618,"x_min":28,"x_max":590,"o":"m 590 -119 l 433 -119 q 326 -83 375 -118 q 257 6 276 -49 q 94 85 160 11 q 28 254 28 158 l 28 785 q 101 960 28 888 q 276 1033 175 1033 q 452 960 379 1033 q 525 785 525 888 l 525 254 q 467 96 525 169 q 324 8 410 22 q 383 -46 342 -32 q 472 -60 425 -60 q 506 -59 489 -60 q 540 -58 524 -58 q 567 -56 554 -57 q 590 -56 579 -56 l 590 -119 l 590 -119 m 464 256 l 464 785 q 408 916 464 861 q 276 971 353 971 q 145 916 200 971 q 90 785 90 861 l 90 254 q 135 133 90 186 q 247 68 179 79 q 313 210 249 163 q 464 256 376 258 l 464 256 m 453 192 l 433 192 q 346 156 382 192 q 308 69 310 119 q 398 111 360 78 q 453 192 436 144 l 453 192 z "},"R":{"ha":474,"x_min":22,"x_max":451,"o":"m 451 0 l 389 0 q 390 22 389 10 q 390 49 390 35 q 392 96 392 71 q 392 146 393 121 q 365 263 389 210 q 274 315 342 315 l 85 315 l 85 0 l 22 0 l 22 1042 l 199 1042 q 376 967 301 1042 q 450 790 450 893 l 450 506 q 428 417 450 457 q 367 349 407 376 q 428 279 406 318 q 451 189 451 240 l 451 0 l 451 0 m 388 506 l 388 790 q 332 923 388 867 q 199 979 276 979 l 85 979 l 85 378 q 111 377 97 378 q 140 376 125 376 q 174 376 157 376 q 208 375 190 375 q 331 400 275 376 q 388 506 388 424 l 388 506 z "},"S":{"ha":583,"x_min":39,"x_max":544,"o":"m 544 521 l 482 521 q 483 558 482 538 q 485 599 483 578 q 487 653 486 625 q 488 711 488 682 q 449 895 485 811 q 292 979 413 979 q 158 924 214 979 q 103 790 103 868 l 103 490 q 132 455 103 468 q 206 429 161 442 q 258 417 231 424 q 315 401 286 410 q 461 332 394 378 q 528 189 528 286 q 528 181 528 185 q 526 174 528 178 q 470 54 521 108 q 351 0 419 0 l 39 0 l 39 64 l 339 64 q 430 101 396 64 q 464 193 464 139 q 463 209 464 201 q 458 225 461 217 q 431 275 450 251 q 388 307 413 299 l 90 407 q 51 440 64 417 q 39 490 39 463 l 39 790 q 114 967 39 893 q 292 1042 189 1042 q 469 967 394 1042 q 544 790 544 893 l 544 521 l 544 521 z "},"T":{"ha":450,"x_min":21,"x_max":431,"o":"m 431 979 l 257 979 l 257 0 l 194 0 l 194 979 l 21 979 l 21 1042 l 431 1042 l 431 979 l 431 979 z "},"U":{"ha":554,"x_min":25,"x_max":529,"o":"m 529 253 q 455 74 529 149 q 278 0 381 0 q 100 74 174 0 q 26 253 26 149 l 25 1042 l 88 1042 l 88 253 q 144 118 88 174 q 278 63 200 63 q 410 119 356 63 q 465 253 465 175 l 465 1042 l 529 1042 l 529 253 l 529 253 z "},"V":{"ha":469,"x_min":22,"x_max":449,"o":"m 449 426 q 323 126 449 251 q 24 0 197 0 l 22 0 l 22 1042 l 85 1042 l 85 68 q 300 192 214 90 q 386 425 386 294 l 386 1042 l 449 1042 l 449 426 l 449 426 z "},"W":{"ha":693,"x_min":32,"x_max":661,"o":"m 661 0 q 659 0 660 0 q 657 0 658 0 q 478 18 560 1 q 346 132 397 35 q 214 17 290 33 q 36 1 138 1 q 34 1 35 1 q 32 1 33 1 l 32 1042 l 94 1042 l 94 64 q 249 110 182 64 q 315 254 315 156 l 315 726 l 378 726 l 378 254 q 444 110 378 157 q 599 64 510 63 l 599 1042 l 661 1042 l 661 0 l 661 0 z "},"X":{"ha":557,"x_min":25,"x_max":531,"o":"m 531 0 l 467 0 q 467 6 467 3 q 467 11 467 8 q 467 39 467 25 q 467 68 467 53 q 433 238 464 161 q 278 315 401 315 q 124 238 156 315 q 90 68 93 161 q 90 40 90 54 q 90 11 90 25 q 90 6 90 8 q 90 0 90 3 l 25 0 q 25 19 25 10 q 25 39 25 29 q 43 213 26 133 q 156 347 60 293 q 61 440 96 379 q 26 568 26 500 l 25 1042 l 89 1042 l 89 568 q 144 433 89 488 q 278 378 199 378 q 412 433 357 378 q 467 568 467 489 l 467 1042 l 531 1042 l 531 568 q 496 441 531 500 q 403 349 461 382 q 496 255 461 314 q 531 126 531 196 l 531 0 l 531 0 z "},"Y":{"ha":556,"x_min":25,"x_max":531,"o":"m 531 568 q 467 401 531 475 q 310 317 404 328 l 310 0 l 247 0 l 247 317 q 89 401 153 328 q 25 568 25 475 l 25 1042 l 89 1042 l 89 568 q 144 433 89 489 q 278 378 200 378 q 411 434 356 378 q 467 568 467 490 l 467 1042 l 531 1042 l 531 568 l 531 568 z "},"Z":{"ha":521,"x_min":24,"x_max":497,"o":"m 497 0 l 24 0 l 24 63 l 215 504 l 132 504 l 132 568 l 242 568 l 421 979 l 24 979 l 24 1042 l 497 1042 l 497 979 l 494 979 l 497 978 l 319 568 l 389 568 l 389 504 l 292 504 l 100 63 l 497 63 l 497 0 l 497 0 z "},"[":{"ha":278,"x_min":13,"x_max":265,"o":"m 265 -278 l 13 -278 l 13 1111 l 257 1111 l 257 1043 l 89 1043 l 89 -210 l 265 -210 l 265 -278 l 265 -278 z "},"\\":{"ha":417,"x_min":-25,"x_max":483,"o":"m 483 -208 l 419 -208 l -25 1111 l 39 1111 l 483 -208 l 483 -208 z "},"]":{"ha":278,"x_min":18,"x_max":271,"o":"m 271 -278 l 18 -278 l 18 -210 l 194 -210 l 194 1043 l 26 1043 l 26 1111 l 271 1111 l 271 -278 l 271 -278 z "},"^":{"ha":417,"x_min":47,"x_max":388,"o":"m 388 947 l 311 947 l 217 1046 l 124 947 l 47 947 l 206 1117 l 229 1117 l 388 947 l 388 947 z "},"_":{"ha":1111,"x_min":0,"x_max":1111,"o":"m 1111 -108 l 0 -108 l 0 -44 l 1111 -44 l 1111 -108 l 1111 -108 z "},"`":{"ha":307,"x_min":14,"x_max":292,"o":"m 292 1042 l 278 1010 l 44 1090 q 23 1102 32 1093 q 14 1125 14 1111 q 25 1154 14 1142 q 53 1167 36 1167 q 99 1149 64 1167 q 172 1111 133 1132 q 180 1106 176 1108 q 188 1103 183 1104 q 251 1066 222 1083 q 292 1042 281 1049 l 292 1042 z "},"a":{"ha":486,"x_min":0,"x_max":528,"o":"m 528 3 l 0 3 l 0 67 l 528 67 l 528 3 l 528 3 m 461 158 l 396 158 l 396 422 l 94 422 l 94 158 l 29 158 l 29 821 q 92 974 29 911 q 244 1038 156 1038 q 397 974 333 1038 q 461 821 461 910 l 461 158 l 461 158 m 396 488 l 396 821 q 351 926 396 882 q 244 971 306 971 q 140 926 185 971 q 94 821 94 882 l 94 488 l 396 488 l 396 488 z "},"b":{"ha":486,"x_min":0,"x_max":528,"o":"m 528 3 l 0 3 l 0 67 l 528 67 l 528 3 l 528 3 m 456 315 q 391 187 456 222 q 247 151 326 151 l 72 151 l 21 153 l 21 1031 l 239 1031 q 391 967 328 1031 q 454 815 454 903 l 454 578 q 453 567 454 572 q 453 557 453 563 q 432 496 449 525 q 390 449 415 467 q 438 389 419 422 q 456 315 456 356 l 456 315 m 389 315 q 389 321 389 318 q 389 326 389 324 q 358 386 383 358 q 299 414 332 414 l 89 414 l 89 218 l 292 218 q 360 247 332 218 q 389 315 389 276 l 389 315 m 388 578 l 388 815 q 344 919 388 875 q 239 964 300 964 l 89 964 l 89 481 l 300 481 q 358 507 333 481 q 386 564 382 533 q 388 572 388 568 q 388 578 388 575 l 388 578 z "},"c":{"ha":479,"x_min":0,"x_max":528,"o":"m 528 3 l 0 3 l 0 67 l 528 67 l 528 3 l 528 3 m 442 374 q 378 215 442 279 q 225 150 315 150 q 73 214 136 150 q 10 367 10 278 l 8 811 q 72 965 8 901 q 225 1028 136 1028 q 378 964 315 1028 q 442 811 442 900 l 442 646 l 375 646 q 375 668 375 657 q 376 692 375 679 q 376 720 376 706 q 376 750 376 735 q 349 895 375 829 q 225 961 324 961 q 119 917 164 961 q 75 811 75 872 l 75 367 q 119 260 75 304 q 225 215 164 215 q 331 260 288 215 q 375 374 375 306 l 442 374 l 442 374 z "},"d":{"ha":486,"x_min":0,"x_max":528,"o":"m 528 3 l 0 3 l 0 67 l 528 67 l 528 3 l 528 3 m 474 368 q 408 210 474 275 q 250 144 343 144 l 26 144 l 26 1036 l 250 1036 q 407 970 342 1036 q 472 814 472 904 l 474 368 l 474 368 m 407 368 l 407 814 q 360 924 406 878 q 250 969 314 969 l 93 969 l 93 211 l 250 211 q 361 258 315 211 q 407 368 407 304 l 407 368 z "},"e":{"ha":432,"x_min":0,"x_max":472,"o":"m 472 3 l 0 3 l 0 67 l 472 67 l 472 3 l 472 3 m 403 406 l 88 406 l 88 249 q 99 224 88 235 q 124 211 111 214 q 128 210 126 210 q 133 210 131 210 l 350 210 l 350 143 l 133 143 q 53 176 86 143 q 21 256 21 208 l 22 910 q 54 990 22 957 q 133 1022 86 1022 l 350 1022 l 350 956 l 133 956 q 127 955 131 956 q 121 953 124 954 q 98 939 108 949 q 88 917 88 929 l 88 472 l 403 472 l 403 406 l 403 406 z "},"f":{"ha":461,"x_min":0,"x_max":500,"o":"m 500 3 l 0 3 l 0 67 l 500 67 l 500 3 l 500 3 m 428 414 l 113 414 l 113 151 l 46 151 l 47 918 q 79 998 47 965 q 157 1031 111 1031 l 375 1031 l 375 963 l 157 963 q 149 962 153 963 q 140 958 144 961 q 122 945 131 954 q 113 925 113 936 l 113 481 l 428 481 l 428 414 l 428 414 z "},"g":{"ha":486,"x_min":0,"x_max":528,"o":"m 528 3 l 0 3 l 0 67 l 528 67 l 528 3 l 528 3 m 457 376 q 394 223 457 288 q 240 158 331 158 q 88 223 151 158 q 25 376 25 288 l 24 821 q 88 974 24 911 q 240 1038 151 1038 q 393 974 329 1038 q 457 821 457 910 l 457 656 l 390 656 q 390 677 390 667 q 390 699 390 688 q 392 729 392 714 q 392 760 392 744 q 364 905 390 839 q 240 971 338 971 q 135 926 179 971 q 90 821 90 882 l 90 376 q 135 269 90 313 q 240 225 179 225 q 360 286 331 225 q 390 421 390 347 l 182 421 l 182 486 l 457 486 l 457 376 l 457 376 z "},"h":{"ha":508,"x_min":0,"x_max":556,"o":"m 556 3 l 0 3 l 0 67 l 556 67 l 556 3 l 556 3 m 467 156 l 400 156 l 400 417 l 100 417 l 100 156 l 33 156 l 33 1033 l 100 1033 l 100 483 l 400 483 l 400 1033 l 467 1033 l 467 156 l 467 156 z "},"i":{"ha":118,"x_min":0,"x_max":153,"o":"m 153 3 l 0 3 l 0 67 l 153 67 l 153 3 l 153 3 m 96 151 l 29 151 l 29 1029 l 96 1029 l 96 151 l 96 151 z "},"j":{"ha":264,"x_min":0,"x_max":306,"o":"m 306 3 l 0 3 l 0 67 l 306 67 l 306 3 l 306 3 m 232 292 q 171 147 232 208 q 19 86 110 85 l 19 150 q 126 191 83 147 q 168 292 168 235 l 168 1017 l 232 1017 l 232 292 l 232 292 z "},"k":{"ha":451,"x_min":0,"x_max":486,"o":"m 486 3 l 0 3 l 0 67 l 486 67 l 486 3 l 486 3 m 410 154 l 342 154 q 342 160 342 157 q 342 165 342 163 q 342 199 342 182 q 340 233 342 215 q 312 358 338 301 q 201 414 286 414 l 96 414 l 96 153 l 29 153 l 29 1031 l 96 1031 l 96 481 l 206 481 q 297 523 258 481 q 340 617 335 565 q 342 623 342 619 q 342 631 342 626 l 342 1031 l 410 1031 l 410 631 q 410 627 410 629 q 410 622 410 625 q 380 523 407 571 q 307 449 353 475 q 383 370 356 418 q 410 264 410 322 l 410 154 l 410 154 z "},"l":{"ha":432,"x_min":0,"x_max":458,"o":"m 458 3 l 0 3 l 0 67 l 458 67 l 458 3 l 458 3 m 410 157 l 140 157 q 60 189 93 157 q 28 268 28 221 l 28 1035 l 96 1035 l 96 268 q 109 237 96 250 q 140 224 122 224 l 410 224 l 410 157 l 410 157 z "},"m":{"ha":597,"x_min":0,"x_max":639,"o":"m 639 3 l 0 3 l 0 67 l 639 67 l 639 3 l 639 3 m 558 156 l 493 156 l 493 968 q 374 930 425 968 q 324 818 324 892 l 324 418 l 258 418 l 258 818 q 207 929 258 892 q 89 968 156 967 l 89 156 l 22 156 l 22 1033 q 178 1020 114 1033 q 290 932 242 1007 q 405 1019 336 1006 q 558 1035 474 1033 l 558 156 l 558 156 z "},"n":{"ha":451,"x_min":0,"x_max":486,"o":"m 486 3 l 0 3 l 0 67 l 486 67 l 486 3 l 486 3 m 408 156 l 343 156 l 343 661 q 272 856 342 772 q 94 963 201 939 l 94 156 l 29 156 l 29 1033 q 209 990 128 1035 q 343 871 290 946 l 343 1035 l 408 1035 l 408 156 l 408 156 z "},"o":{"ha":486,"x_min":0,"x_max":528,"o":"m 528 3 l 0 3 l 0 67 l 528 67 l 528 3 l 528 3 m 451 368 q 388 215 451 279 q 236 151 325 151 q 84 215 147 151 q 19 368 21 279 l 19 813 q 83 965 19 903 q 235 1028 146 1028 q 388 965 324 1028 q 451 813 451 901 l 451 368 l 451 368 m 385 368 l 385 813 q 340 918 385 874 q 235 963 296 963 q 131 918 175 963 q 86 813 86 874 l 86 368 q 130 261 86 306 q 236 217 174 217 q 341 261 297 217 q 385 368 385 306 l 385 368 z "},"p":{"ha":438,"x_min":0,"x_max":472,"o":"m 472 3 l 0 3 l 0 67 l 472 67 l 472 3 l 472 3 m 401 575 q 336 443 401 474 q 193 411 271 413 q 154 410 174 410 q 117 411 135 410 q 102 411 110 411 q 88 411 94 411 l 88 149 l 22 149 l 22 1026 l 185 1026 q 338 963 274 1026 q 401 811 401 900 l 401 575 l 401 575 m 335 575 l 335 811 q 290 916 335 871 q 185 961 246 961 l 88 961 l 88 476 l 238 476 q 306 506 278 476 q 335 575 335 536 l 335 575 z "},"q":{"ha":528,"x_min":0,"x_max":583,"o":"m 583 3 l 0 3 l 0 67 l 583 67 l 583 3 l 583 3 m 513 76 l 375 76 q 284 105 326 76 q 224 179 242 133 q 87 249 142 186 q 32 393 32 313 l 32 833 q 94 984 32 921 q 244 1047 157 1047 q 396 984 333 1047 q 458 833 458 921 l 458 393 q 412 260 458 322 q 296 183 365 199 q 347 144 313 153 q 419 138 382 136 q 443 138 432 138 q 465 139 454 139 q 490 141 478 140 q 513 142 503 142 l 513 76 l 513 76 m 393 401 l 393 833 q 349 938 393 894 q 244 981 306 981 q 141 938 185 981 q 97 833 97 894 l 97 393 q 130 299 97 340 q 214 247 163 258 q 270 362 218 322 q 393 401 322 401 l 393 401 m 381 335 l 375 335 q 310 310 338 335 q 278 249 283 285 q 340 278 314 256 q 381 335 367 301 l 381 335 z "},"r":{"ha":396,"x_min":0,"x_max":444,"o":"m 444 3 l 0 3 l 0 67 l 444 67 l 444 3 l 444 3 m 369 144 l 304 144 q 305 165 304 153 q 306 190 306 176 q 308 226 307 207 q 308 264 308 244 q 289 361 307 317 q 215 406 271 406 l 65 406 l 65 144 l 0 144 l 0 1022 l 153 1022 q 305 959 242 1022 q 368 807 368 896 l 368 571 q 351 497 368 531 q 304 440 335 464 q 351 382 333 414 q 369 308 369 350 l 369 144 l 369 144 m 303 571 l 303 807 q 258 913 303 868 q 153 957 214 957 l 65 957 l 65 472 q 85 472 75 472 q 106 471 94 471 q 131 469 118 469 q 158 468 144 468 q 258 488 213 469 q 303 571 303 506 l 303 571 z "},"s":{"ha":486,"x_min":0,"x_max":514,"o":"m 514 3 l 0 3 l 0 67 l 514 67 l 514 3 l 514 3 m 464 571 l 399 571 q 399 604 399 586 q 401 640 400 622 q 403 683 401 661 q 404 725 404 704 q 375 881 403 810 q 247 951 347 951 q 142 907 186 951 q 97 801 97 863 l 97 553 q 122 522 97 533 q 183 501 146 511 q 227 492 204 497 q 274 479 250 486 q 395 422 340 460 q 450 303 450 383 q 450 299 450 301 q 450 294 450 297 q 403 188 447 236 q 297 139 358 139 l 31 139 l 31 206 l 286 206 q 357 235 331 206 q 383 306 383 264 q 383 317 383 311 q 379 331 382 324 q 358 368 374 350 q 324 393 343 386 l 78 476 q 42 506 53 486 q 31 553 31 526 l 31 801 q 94 953 31 890 q 247 1017 158 1017 q 400 953 336 1017 q 464 801 464 890 l 464 571 l 464 571 z "},"t":{"ha":403,"x_min":0,"x_max":444,"o":"m 444 3 l 0 3 l 0 67 l 444 67 l 444 3 l 444 3 m 375 975 l 231 975 l 231 163 l 165 163 l 165 975 l 21 975 l 21 1040 l 375 1040 l 375 975 l 375 975 z "},"u":{"ha":465,"x_min":7,"x_max":528,"o":"m 528 3 l 14 3 l 14 67 l 528 67 l 528 3 l 528 3 m 438 354 q 374 201 438 265 q 222 138 311 138 q 70 201 133 138 q 7 354 7 265 l 7 1017 l 71 1017 l 71 354 q 116 247 71 292 q 222 203 161 203 q 327 248 283 203 q 371 354 371 293 l 371 1017 l 438 1017 l 438 354 l 438 354 z "},"v":{"ha":396,"x_min":0,"x_max":444,"o":"m 444 3 l 0 3 l 0 67 l 444 67 l 444 3 l 444 3 m 374 506 q 268 250 374 357 q 14 144 163 143 l 6 144 l 6 1024 l 71 1024 l 71 217 q 241 318 174 238 q 308 504 308 399 l 308 1024 l 374 1024 l 374 506 l 374 506 z "},"w":{"ha":576,"x_min":0,"x_max":611,"o":"m 611 3 l 0 3 l 0 67 l 611 67 l 611 3 l 611 3 m 544 132 q 390 147 458 133 q 276 236 321 160 q 164 147 229 160 q 8 133 99 133 l 8 1011 l 75 1011 l 75 199 q 193 238 142 201 q 244 350 244 274 l 244 749 l 310 749 l 310 350 q 360 237 310 274 q 479 199 411 200 l 479 1011 l 544 1011 l 544 132 l 544 132 z "},"x":{"ha":463,"x_min":0,"x_max":500,"o":"m 500 3 l 0 3 l 0 67 l 500 67 l 500 3 l 500 3 m 442 128 l 375 128 q 375 134 375 131 q 375 140 375 138 q 375 158 375 149 q 375 175 375 167 q 350 323 374 256 q 225 390 326 390 q 100 323 124 390 q 76 175 76 256 q 76 159 76 167 q 76 143 76 151 q 76 135 76 139 q 76 128 76 132 l 8 128 q 8 142 8 135 q 8 156 8 149 q 22 309 8 242 q 111 424 35 376 q 36 501 64 451 q 8 607 8 551 l 8 1007 l 75 1007 l 75 607 q 119 499 75 543 q 225 456 163 456 q 331 500 288 456 q 375 607 375 544 l 375 1007 l 442 1007 l 442 607 q 415 503 442 551 q 340 424 388 454 q 415 345 388 393 q 442 240 442 297 l 442 128 l 442 128 z "},"y":{"ha":451,"x_min":0,"x_max":500,"o":"m 500 3 l 0 3 l 0 67 l 500 67 l 500 3 l 500 3 m 439 625 q 386 483 439 546 q 256 410 333 421 l 256 146 l 190 146 l 190 410 q 58 483 111 421 q 6 625 6 546 l 6 1025 l 72 1025 l 72 625 q 117 517 72 561 q 222 474 161 474 q 328 518 283 474 q 372 625 372 563 l 372 1025 l 439 1025 l 439 625 l 439 625 z "},"z":{"ha":451,"x_min":0,"x_max":486,"o":"m 486 3 l 0 3 l 0 67 l 486 67 l 486 3 l 486 3 m 429 967 l 283 632 l 336 632 l 336 564 l 254 564 l 101 211 l 426 211 l 426 146 l 19 146 l 19 206 l 174 564 l 110 564 l 110 632 l 201 632 l 344 958 l 19 958 l 19 1025 l 426 1025 l 426 958 l 417 958 l 419 971 l 429 967 l 429 967 z "},"{":{"ha":228,"x_min":10,"x_max":218,"o":"m 218 -222 l 200 -278 q 70 -214 118 -262 q 22 -79 22 -165 q 34 7 22 -35 q 61 90 46 49 q 62 94 61 92 q 64 99 63 96 q 92 186 79 142 q 106 278 106 231 q 106 286 106 282 q 104 294 106 290 q 78 374 101 338 q 10 418 54 410 q 71 451 49 421 q 100 515 93 481 q 104 537 103 526 q 106 557 106 547 q 92 649 106 604 q 64 736 79 693 q 62 741 63 739 q 61 744 61 743 q 34 828 46 786 q 22 915 22 871 q 71 1049 22 1003 q 200 1111 119 1094 l 218 1056 q 121 1009 165 1053 q 76 911 76 965 q 90 823 76 865 q 119 738 103 781 q 148 652 135 694 q 161 564 161 610 q 156 512 161 536 q 140 465 151 488 q 128 442 135 453 q 113 418 121 431 q 144 366 132 394 q 158 308 156 338 q 160 291 160 300 q 161 274 161 282 q 148 185 161 228 q 119 99 135 142 q 90 13 103 56 q 76 -75 76 -29 q 77 -83 76 -79 q 78 -93 78 -87 q 127 -181 86 -140 q 218 -221 168 -221 l 218 -222 z "},"|":{"ha":104,"x_min":3,"x_max":67,"o":"m 67 -278 l 3 -278 l 3 1111 l 67 1111 l 67 -278 l 67 -278 z "},"}":{"ha":228,"x_min":7,"x_max":215,"o":"m 215 418 q 147 374 171 410 q 121 294 124 338 q 119 286 119 290 q 119 278 119 282 q 133 186 119 231 q 161 99 146 142 q 163 94 163 96 q 164 90 164 92 q 191 7 179 49 q 203 -79 203 -35 q 155 -214 203 -165 q 25 -276 107 -262 l 7 -222 q 98 -181 57 -221 q 147 -93 139 -140 q 148 -83 147 -87 q 149 -75 149 -79 q 135 13 149 -29 q 107 99 122 56 q 77 185 90 142 q 64 274 64 228 q 65 291 64 282 q 67 308 65 300 q 81 366 69 338 q 113 418 93 394 q 97 442 104 431 q 85 465 90 453 q 69 512 74 488 q 64 564 64 536 q 77 652 64 610 q 107 738 90 694 q 135 823 122 781 q 149 911 149 865 q 104 1009 149 965 q 7 1056 60 1053 l 25 1111 q 155 1049 107 1094 q 203 915 203 1003 q 191 828 203 871 q 164 744 179 786 q 163 741 164 743 q 161 736 163 739 q 133 649 146 693 q 119 557 119 604 q 121 537 119 547 q 125 515 122 526 q 154 451 132 481 q 215 418 176 421 l 215 418 z "},"~":{"ha":674,"x_min":32,"x_max":643,"o":"m 643 511 q 560 447 607 467 q 457 426 513 426 q 386 442 417 426 q 329 475 356 457 q 319 481 324 478 q 310 488 314 483 q 265 512 288 501 q 215 522 243 522 q 139 508 175 522 q 78 461 103 493 l 32 500 q 115 563 68 544 q 217 582 163 582 q 288 567 258 582 q 346 536 318 553 q 355 529 350 532 q 365 522 360 526 q 408 499 386 508 q 458 489 431 489 q 534 503 499 489 q 596 549 569 518 l 643 511 l 643 511 z "},"Ä":{"ha":556,"x_min":21,"x_max":525,"o":"m 525 3 l 463 3 l 463 319 l 83 319 l 83 3 l 21 3 l 21 792 q 94 971 21 897 q 272 1044 168 1044 q 450 969 375 1044 q 525 792 525 894 l 525 3 l 525 3 m 463 382 l 463 792 q 406 926 463 869 q 272 982 350 982 q 140 926 196 982 q 83 792 83 869 l 83 382 l 463 382 l 463 382 m 247 1100 q 247 1094 247 1097 q 244 1086 246 1090 q 229 1065 239 1075 q 208 1056 219 1056 l 196 1056 q 190 1057 193 1056 q 183 1060 186 1058 q 170 1069 176 1063 q 161 1082 164 1075 q 158 1088 158 1085 q 157 1093 157 1090 l 157 1106 q 167 1128 157 1118 q 188 1142 176 1138 q 195 1144 192 1143 q 201 1144 199 1144 q 233 1131 219 1144 q 247 1100 247 1118 l 247 1100 m 400 1100 q 399 1094 400 1097 q 397 1086 399 1090 q 382 1065 392 1075 q 361 1056 372 1056 l 349 1056 q 342 1057 346 1056 q 336 1060 339 1058 q 323 1069 329 1063 q 314 1082 317 1075 q 310 1088 311 1085 q 310 1093 310 1090 l 310 1106 q 319 1128 310 1118 q 340 1142 329 1138 q 348 1144 344 1143 q 354 1144 351 1144 q 386 1131 372 1144 q 400 1100 400 1118 l 400 1100 z "},"Å":{"ha":556,"x_min":21,"x_max":525,"o":"m 525 3 l 463 3 l 463 319 l 83 319 l 83 3 l 21 3 l 21 792 q 94 971 21 897 q 272 1044 168 1044 q 450 969 375 1044 q 525 792 525 894 l 525 3 l 525 3 m 463 382 l 463 792 q 406 926 463 869 q 272 982 350 982 q 140 926 196 982 q 83 792 83 869 l 83 382 l 463 382 l 463 382 m 383 1185 q 351 1107 383 1139 q 274 1075 318 1075 q 194 1107 226 1075 q 163 1185 163 1139 q 195 1262 163 1229 q 274 1294 228 1294 q 351 1262 318 1294 q 383 1185 383 1229 l 383 1185 m 329 1185 q 313 1225 329 1208 q 274 1242 297 1242 q 233 1225 250 1242 q 215 1185 215 1208 q 232 1144 215 1160 q 274 1128 249 1128 q 313 1144 297 1128 q 329 1185 329 1161 l 329 1185 z "},"Ç":{"ha":556,"x_min":25,"x_max":531,"o":"m 531 253 q 467 85 531 157 q 311 3 404 14 l 296 -43 q 352 -72 333 -50 q 371 -132 371 -93 q 333 -208 371 -182 q 249 -235 294 -235 l 232 -236 l 246 -189 q 296 -175 274 -186 q 318 -132 318 -164 q 301 -100 318 -108 q 263 -90 283 -92 q 251 -89 257 -89 q 239 -89 244 -89 q 232 -87 236 -87 q 225 -87 228 -87 q 230 -74 225 -87 q 240 -44 235 -60 q 240 -43 240 -43 q 240 -43 240 -43 q 251 -12 247 -25 q 256 1 256 1 q 93 82 160 10 q 26 253 26 154 l 25 789 q 100 967 25 893 q 278 1042 175 1042 q 456 967 381 1042 q 531 789 531 892 l 531 599 l 467 599 q 467 622 467 610 q 467 646 467 633 q 468 688 468 667 q 467 731 468 710 q 430 901 464 824 q 278 978 396 978 q 144 922 200 978 q 89 789 89 867 l 89 253 q 144 118 89 174 q 278 63 200 63 q 411 119 356 63 q 467 253 467 175 l 531 253 l 531 253 z "},"É":{"ha":486,"x_min":22,"x_max":465,"o":"m 465 315 l 86 315 l 86 118 q 101 84 86 99 q 135 65 117 69 q 142 65 138 65 q 149 64 146 64 l 401 64 l 401 0 l 149 0 q 59 37 96 0 q 22 126 22 74 l 22 914 q 60 1004 22 967 q 149 1042 97 1042 l 401 1042 l 401 978 l 149 978 q 140 977 144 978 q 131 975 136 976 q 100 955 114 969 q 86 924 86 940 l 86 379 l 465 379 l 465 315 l 465 315 m 439 1167 q 430 1144 439 1153 q 408 1132 421 1135 l 175 1051 l 161 1083 q 201 1108 172 1090 q 265 1144 231 1125 q 273 1148 269 1146 q 281 1153 276 1150 q 354 1191 319 1174 q 400 1208 389 1208 q 428 1196 417 1208 q 439 1167 439 1183 l 439 1167 z "},"Ñ":{"ha":521,"x_min":17,"x_max":494,"o":"m 475 0 l 413 0 l 413 600 q 322 843 411 740 q 97 974 233 946 l 97 0 l 35 0 l 35 1040 q 252 983 153 1042 q 413 824 351 924 l 413 1042 l 475 1042 l 475 0 l 475 0 m 494 1136 q 425 1081 463 1097 q 343 1064 388 1064 q 290 1075 313 1064 q 247 1100 268 1086 q 241 1105 244 1103 q 233 1110 238 1107 q 201 1128 218 1119 q 163 1136 183 1136 q 108 1126 135 1136 q 61 1088 82 1115 l 17 1126 q 83 1179 46 1164 q 164 1194 121 1194 q 217 1183 194 1194 q 260 1160 240 1172 q 267 1155 264 1157 q 274 1150 271 1153 q 307 1133 290 1140 q 344 1125 324 1125 q 399 1135 372 1125 q 447 1172 425 1146 l 494 1136 l 494 1136 z "},"Ö":{"ha":556,"x_min":25,"x_max":529,"o":"m 529 253 q 455 74 529 149 q 278 0 381 0 q 100 74 174 0 q 25 253 26 149 l 25 789 q 99 967 25 893 q 276 1040 174 1040 q 454 966 379 1040 q 529 789 529 892 l 529 253 l 529 253 m 465 253 l 465 789 q 410 922 465 865 q 276 978 354 978 q 144 922 200 978 q 89 789 89 867 l 89 253 q 144 118 89 174 q 278 63 199 63 q 410 119 356 63 q 465 253 465 175 l 465 253 m 247 1100 q 247 1094 247 1097 q 244 1086 246 1090 q 229 1065 239 1075 q 208 1056 219 1056 l 196 1056 q 190 1057 193 1056 q 183 1060 186 1058 q 170 1069 176 1063 q 161 1082 164 1075 q 158 1088 158 1085 q 157 1093 157 1090 l 157 1106 q 167 1128 157 1118 q 188 1142 176 1138 q 195 1144 192 1143 q 201 1144 199 1144 q 233 1131 219 1144 q 247 1100 247 1118 l 247 1100 m 400 1100 q 399 1094 400 1097 q 397 1086 399 1090 q 382 1065 392 1075 q 361 1056 372 1056 l 349 1056 q 342 1057 346 1056 q 336 1060 339 1058 q 323 1069 329 1063 q 314 1082 317 1075 q 310 1088 311 1085 q 310 1093 310 1090 l 310 1106 q 319 1128 310 1118 q 340 1142 329 1138 q 348 1144 344 1143 q 354 1144 351 1144 q 386 1131 372 1144 q 400 1100 400 1118 l 400 1100 z "},"Ü":{"ha":554,"x_min":25,"x_max":529,"o":"m 529 253 q 455 74 529 149 q 278 0 381 0 q 100 74 174 0 q 26 253 26 149 l 25 1042 l 88 1042 l 88 253 q 144 118 88 174 q 278 63 200 63 q 410 119 356 63 q 465 253 465 175 l 465 1042 l 529 1042 l 529 253 l 529 253 m 247 1100 q 247 1094 247 1097 q 244 1086 246 1090 q 229 1065 239 1075 q 208 1056 219 1056 l 196 1056 q 190 1057 193 1056 q 183 1060 186 1058 q 170 1069 176 1063 q 161 1082 164 1075 q 158 1088 158 1085 q 157 1093 157 1090 l 157 1106 q 167 1128 157 1118 q 188 1142 176 1138 q 195 1144 192 1143 q 201 1144 199 1144 q 233 1131 219 1144 q 247 1100 247 1118 l 247 1100 m 400 1100 q 399 1094 400 1097 q 397 1086 399 1090 q 382 1065 392 1075 q 361 1056 372 1056 l 349 1056 q 342 1057 346 1056 q 336 1060 339 1058 q 323 1069 329 1063 q 314 1082 317 1075 q 310 1088 311 1085 q 310 1093 310 1090 l 310 1106 q 319 1128 310 1118 q 340 1142 329 1138 q 348 1144 344 1143 q 354 1144 351 1144 q 386 1131 372 1144 q 400 1100 400 1118 l 400 1100 z "},"á":{"ha":500,"x_min":0,"x_max":528,"o":"m 528 3 l 0 3 l 0 67 l 528 67 l 528 3 l 528 3 m 461 158 l 396 158 l 396 422 l 94 422 l 94 158 l 29 158 l 29 821 q 92 974 29 911 q 244 1038 156 1038 q 397 974 333 1038 q 461 821 461 910 l 461 158 l 461 158 m 396 488 l 396 821 q 351 926 396 882 q 244 971 306 971 q 140 926 185 971 q 94 821 94 882 l 94 488 l 396 488 l 396 488 m 396 1190 q 387 1167 396 1176 q 364 1154 378 1157 l 158 1083 l 142 1122 q 178 1144 153 1129 q 233 1175 204 1158 q 240 1179 238 1178 q 247 1183 243 1181 q 314 1218 282 1203 q 356 1233 346 1233 q 385 1221 374 1233 q 396 1190 396 1208 l 396 1190 z "},"à":{"ha":500,"x_min":0,"x_max":528,"o":"m 528 3 l 0 3 l 0 67 l 528 67 l 528 3 l 528 3 m 461 158 l 396 158 l 396 422 l 94 422 l 94 158 l 29 158 l 29 821 q 92 974 29 911 q 244 1038 156 1038 q 397 974 333 1038 q 461 821 461 910 l 461 158 l 461 158 m 396 488 l 396 821 q 351 926 396 882 q 244 971 306 971 q 140 926 185 971 q 94 821 94 882 l 94 488 l 396 488 l 396 488 m 390 1136 l 372 1097 l 165 1168 q 144 1181 153 1171 q 135 1204 135 1190 q 146 1235 135 1222 q 175 1247 157 1247 q 217 1232 185 1247 q 285 1196 249 1217 q 291 1193 288 1194 q 297 1189 294 1192 q 353 1158 326 1172 q 390 1136 379 1143 l 390 1136 z "},"â":{"ha":500,"x_min":0,"x_max":528,"o":"m 528 3 l 0 3 l 0 67 l 528 67 l 528 3 l 528 3 m 461 158 l 396 158 l 396 422 l 94 422 l 94 158 l 29 158 l 29 821 q 92 974 29 911 q 244 1038 156 1038 q 397 974 333 1038 q 461 821 461 910 l 461 158 l 461 158 m 396 488 l 396 821 q 351 926 396 882 q 244 971 306 971 q 140 926 185 971 q 94 821 94 882 l 94 488 l 396 488 l 396 488 m 367 1113 l 301 1113 l 244 1172 l 189 1113 l 121 1113 l 235 1232 l 256 1232 l 367 1113 l 367 1113 z "},"ä":{"ha":500,"x_min":0,"x_max":528,"o":"m 528 3 l 0 3 l 0 67 l 528 67 l 528 3 l 528 3 m 461 158 l 396 158 l 396 422 l 94 422 l 94 158 l 29 158 l 29 821 q 92 974 29 911 q 244 1038 156 1038 q 397 974 333 1038 q 461 821 461 910 l 461 158 l 461 158 m 396 488 l 396 821 q 351 926 396 882 q 244 971 306 971 q 140 926 185 971 q 94 821 94 882 l 94 488 l 396 488 l 396 488 m 229 1149 q 228 1142 229 1146 q 226 1135 228 1139 q 212 1115 221 1124 q 193 1104 203 1106 q 191 1104 192 1104 q 189 1104 190 1104 l 179 1104 q 173 1106 176 1104 q 165 1108 169 1107 q 152 1117 158 1111 q 142 1131 146 1124 q 139 1137 140 1133 q 138 1143 138 1140 l 138 1154 q 147 1176 138 1165 q 168 1190 157 1186 q 176 1194 172 1193 q 183 1194 179 1194 q 216 1181 203 1194 q 229 1149 229 1168 l 229 1149 m 361 1149 q 360 1142 361 1146 q 358 1135 360 1139 q 344 1115 353 1124 q 325 1104 335 1106 q 323 1104 324 1104 q 321 1104 322 1104 l 310 1104 q 303 1106 307 1104 q 296 1108 299 1107 q 283 1118 289 1113 q 274 1131 278 1124 q 271 1137 272 1133 q 269 1143 269 1140 l 269 1154 q 280 1177 269 1167 q 303 1192 290 1188 q 309 1194 306 1193 q 315 1194 313 1194 q 317 1194 317 1194 q 319 1194 318 1194 q 348 1180 335 1193 q 361 1149 361 1167 l 361 1149 z "},"ã":{"ha":500,"x_min":0,"x_max":528,"o":"m 528 3 l 0 3 l 0 67 l 528 67 l 528 3 l 528 3 m 461 158 l 396 158 l 396 422 l 94 422 l 94 158 l 29 158 l 29 821 q 92 974 29 911 q 244 1038 156 1038 q 397 974 333 1038 q 461 821 461 910 l 461 158 l 461 158 m 396 488 l 396 821 q 351 926 396 882 q 244 971 306 971 q 140 926 185 971 q 94 821 94 882 l 94 488 l 396 488 l 396 488 m 458 1175 q 390 1119 425 1135 q 317 1104 356 1104 q 271 1114 290 1104 q 235 1136 251 1124 q 229 1140 232 1138 q 224 1143 226 1142 q 195 1160 210 1153 q 163 1167 181 1167 q 118 1158 140 1167 q 76 1122 96 1149 l 28 1165 q 90 1216 56 1201 q 163 1231 124 1231 q 208 1222 189 1231 q 246 1201 228 1213 q 252 1197 249 1199 q 258 1192 256 1194 q 287 1177 272 1183 q 318 1171 301 1171 q 363 1180 342 1171 q 407 1215 385 1189 l 458 1175 l 458 1175 z "},"å":{"ha":500,"x_min":0,"x_max":528,"o":"m 528 3 l 0 3 l 0 67 l 528 67 l 528 3 l 528 3 m 461 158 l 396 158 l 396 422 l 94 422 l 94 158 l 29 158 l 29 821 q 92 974 29 911 q 244 1038 156 1038 q 397 974 333 1038 q 461 821 461 910 l 461 158 l 461 158 m 396 488 l 396 821 q 351 926 396 882 q 244 971 306 971 q 140 926 185 971 q 94 821 94 882 l 94 488 l 396 488 l 396 488 m 347 1218 q 317 1146 347 1175 q 246 1117 288 1117 q 173 1146 203 1117 q 143 1218 143 1175 q 173 1290 143 1260 q 246 1319 203 1319 q 317 1290 286 1319 q 347 1218 347 1260 l 347 1218 m 286 1218 q 274 1247 286 1235 q 246 1260 263 1260 q 215 1248 228 1260 q 203 1218 203 1236 q 215 1188 203 1200 q 246 1176 228 1176 q 274 1188 263 1176 q 286 1218 286 1200 l 286 1218 z "},"ç":{"ha":500,"x_min":0,"x_max":542,"o":"m 454 374 q 401 224 454 286 q 271 151 349 163 l 263 125 q 308 98 293 117 q 322 46 322 79 q 288 -22 322 1 q 214 -44 254 -44 l 190 -46 l 207 6 q 247 15 231 8 q 264 46 264 22 q 245 71 264 67 q 204 75 226 75 q 194 76 199 75 q 183 76 189 76 q 189 88 183 76 q 201 113 194 99 q 214 138 208 126 q 219 150 219 150 q 80 219 138 157 q 22 367 22 282 l 21 811 q 85 965 21 901 q 238 1028 149 1028 q 391 964 328 1028 q 454 811 454 900 l 454 646 l 388 646 q 388 668 388 657 q 389 692 388 679 q 389 719 389 706 q 389 747 389 733 q 363 894 389 828 q 238 961 338 961 q 132 917 176 961 q 88 811 88 872 l 88 367 q 132 260 88 304 q 238 215 176 215 q 344 260 300 215 q 388 374 388 306 l 454 374 l 454 374 m 167 3 l 0 3 l 0 67 l 167 67 l 167 3 l 167 3 m 542 3 l 347 3 l 347 67 l 542 67 l 542 3 l 542 3 z "},"é":{"ha":432,"x_min":0,"x_max":472,"o":"m 472 3 l 0 3 l 0 67 l 472 67 l 472 3 l 472 3 m 403 406 l 88 406 l 88 249 q 99 224 88 235 q 124 211 111 214 q 128 210 126 210 q 133 210 131 210 l 350 210 l 350 143 l 133 143 q 53 176 86 143 q 21 256 21 208 l 22 910 q 54 990 22 957 q 133 1022 86 1022 l 350 1022 l 350 956 l 133 956 q 127 955 131 956 q 121 953 124 954 q 98 939 108 949 q 88 917 88 929 l 88 472 l 403 472 l 403 406 l 403 406 m 368 1190 q 359 1167 368 1176 q 336 1154 350 1157 l 131 1083 l 114 1122 q 151 1144 125 1129 q 206 1175 176 1158 q 213 1179 210 1178 q 219 1183 215 1181 q 286 1218 254 1203 q 328 1233 318 1233 q 357 1221 346 1233 q 368 1190 368 1208 l 368 1190 z "},"è":{"ha":432,"x_min":0,"x_max":472,"o":"m 472 3 l 0 3 l 0 67 l 472 67 l 472 3 l 472 3 m 403 406 l 88 406 l 88 249 q 99 224 88 235 q 124 211 111 214 q 128 210 126 210 q 133 210 131 210 l 350 210 l 350 143 l 133 143 q 53 176 86 143 q 21 256 21 208 l 22 910 q 54 990 22 957 q 133 1022 86 1022 l 350 1022 l 350 956 l 133 956 q 127 955 131 956 q 121 953 124 954 q 98 939 108 949 q 88 917 88 929 l 88 472 l 403 472 l 403 406 l 403 406 m 321 1136 l 303 1097 l 96 1168 q 74 1181 83 1171 q 65 1204 65 1190 q 76 1235 65 1222 q 106 1247 88 1247 q 147 1232 115 1247 q 215 1196 179 1217 q 222 1193 218 1194 q 228 1189 225 1192 q 283 1158 257 1172 q 321 1136 310 1143 l 321 1136 z "},"ê":{"ha":432,"x_min":0,"x_max":472,"o":"m 472 3 l 0 3 l 0 67 l 472 67 l 472 3 l 472 3 m 403 406 l 88 406 l 88 249 q 99 224 88 235 q 124 211 111 214 q 128 210 126 210 q 133 210 131 210 l 350 210 l 350 143 l 133 143 q 53 176 86 143 q 21 256 21 208 l 22 910 q 54 990 22 957 q 133 1022 86 1022 l 350 1022 l 350 956 l 133 956 q 127 955 131 956 q 121 953 124 954 q 98 939 108 949 q 88 917 88 929 l 88 472 l 403 472 l 403 406 l 403 406 m 339 1113 l 274 1113 l 217 1172 l 161 1113 l 93 1113 l 207 1232 l 228 1232 l 339 1113 l 339 1113 z "},"ë":{"ha":432,"x_min":0,"x_max":472,"o":"m 472 3 l 0 3 l 0 67 l 472 67 l 472 3 l 472 3 m 403 406 l 88 406 l 88 249 q 99 224 88 235 q 124 211 111 214 q 128 210 126 210 q 133 210 131 210 l 350 210 l 350 143 l 133 143 q 53 176 86 143 q 21 256 21 208 l 22 910 q 54 990 22 957 q 133 1022 86 1022 l 350 1022 l 350 956 l 133 956 q 127 955 131 956 q 121 953 124 954 q 98 939 108 949 q 88 917 88 929 l 88 472 l 403 472 l 403 406 l 403 406 m 201 1149 q 201 1142 201 1146 q 199 1135 200 1139 q 184 1115 193 1124 q 165 1104 175 1106 q 163 1104 164 1104 q 161 1104 163 1104 l 151 1104 q 145 1106 149 1104 q 138 1108 142 1107 q 124 1117 131 1111 q 114 1131 118 1124 q 111 1137 113 1133 q 110 1143 110 1140 l 110 1154 q 119 1176 110 1165 q 140 1190 129 1186 q 148 1194 144 1193 q 156 1194 151 1194 q 188 1181 175 1194 q 201 1149 201 1168 l 201 1149 m 333 1149 q 333 1142 333 1146 q 331 1135 332 1139 q 316 1115 325 1124 q 297 1104 307 1106 q 295 1104 296 1104 q 293 1104 294 1104 l 282 1104 q 275 1106 279 1104 q 268 1108 271 1107 q 256 1118 261 1113 q 246 1131 250 1124 q 243 1137 244 1133 q 242 1143 242 1140 l 242 1154 q 252 1177 242 1167 q 275 1192 263 1188 q 281 1194 278 1193 q 288 1194 285 1194 q 290 1194 289 1194 q 292 1194 290 1194 q 320 1180 307 1193 q 333 1149 333 1167 l 333 1149 z "},"í":{"ha":125,"x_min":-94,"x_max":160,"o":"m 153 3 l 0 3 l 0 67 l 153 67 l 153 3 l 153 3 m 96 151 l 29 151 l 29 1029 l 96 1029 l 96 151 l 96 151 m 160 1190 q 151 1167 160 1176 q 128 1154 142 1157 l -78 1083 l -94 1122 q -56 1144 -82 1129 q -1 1175 -31 1158 q 4 1179 1 1178 q 11 1183 7 1181 q 78 1218 46 1203 q 119 1233 110 1233 q 149 1221 138 1233 q 160 1190 160 1208 l 160 1190 z "},"ì":{"ha":104,"x_min":-86,"x_max":168,"o":"m 153 3 l 0 3 l 0 67 l 153 67 l 153 3 l 153 3 m 68 151 l 1 151 l 1 1029 l 68 1029 l 68 151 l 68 151 m 168 1136 l 150 1097 l -57 1168 q -77 1181 -68 1171 q -86 1204 -86 1190 q -75 1235 -86 1222 q -46 1247 -64 1247 q -5 1232 -36 1247 q 63 1196 26 1217 q 69 1193 65 1194 q 75 1189 72 1192 q 131 1158 104 1172 q 168 1136 157 1143 l 168 1136 z "},"î":{"ha":125,"x_min":-60,"x_max":186,"o":"m 153 3 l 0 3 l 0 67 l 153 67 l 153 3 l 153 3 m 96 151 l 29 151 l 29 1029 l 96 1029 l 96 151 l 96 151 m 186 1113 l 121 1113 l 64 1172 l 8 1113 l -60 1113 l 54 1232 l 75 1232 l 186 1113 l 186 1113 z "},"ï":{"ha":125,"x_min":-56,"x_max":168,"o":"m 153 3 l 0 3 l 0 67 l 153 67 l 153 3 l 153 3 m 96 151 l 29 151 l 29 1029 l 96 1029 l 96 151 l 96 151 m 36 1151 q 35 1145 36 1149 q 33 1138 35 1142 q 19 1117 28 1126 q 0 1107 10 1108 q -1 1107 0 1107 q -3 1107 -1 1107 l -14 1107 q -19 1108 -15 1107 q -26 1111 -22 1110 q -40 1120 -33 1114 q -50 1133 -46 1126 q -53 1140 -51 1136 q -54 1146 -54 1143 l -56 1157 q -44 1178 -54 1168 q -24 1193 -35 1189 q -16 1197 -19 1196 q -8 1197 -12 1197 q 23 1184 10 1197 q 36 1151 36 1171 l 36 1151 m 168 1151 q 167 1145 168 1149 q 165 1138 167 1142 q 151 1117 160 1126 q 132 1107 142 1108 q 130 1107 131 1107 q 128 1107 129 1107 l 117 1107 q 110 1108 114 1107 q 103 1111 106 1110 q 90 1121 96 1115 q 81 1133 85 1126 q 78 1140 79 1136 q 76 1146 76 1143 l 76 1157 q 87 1180 76 1169 q 110 1194 97 1190 q 116 1197 113 1196 q 122 1197 119 1197 q 124 1197 124 1197 q 126 1197 125 1197 q 155 1183 142 1196 q 168 1151 168 1169 l 168 1151 z "},"ñ":{"ha":451,"x_min":0,"x_max":486,"o":"m 486 3 l 0 3 l 0 67 l 486 67 l 486 3 l 486 3 m 408 156 l 343 156 l 343 661 q 272 856 342 772 q 94 963 201 939 l 94 156 l 29 156 l 29 1033 q 209 990 128 1035 q 343 871 290 946 l 343 1035 l 408 1035 l 408 156 l 408 156 m 444 1175 q 376 1119 411 1135 q 303 1104 342 1104 q 257 1114 276 1104 q 221 1136 238 1124 q 215 1140 218 1138 q 210 1143 213 1142 q 181 1160 196 1153 q 149 1167 167 1167 q 104 1158 126 1167 q 63 1122 82 1149 l 14 1165 q 76 1216 42 1201 q 149 1231 110 1231 q 194 1222 175 1231 q 232 1201 214 1213 q 238 1197 235 1199 q 244 1192 242 1194 q 273 1177 258 1183 q 304 1171 288 1171 q 349 1180 328 1171 q 393 1215 371 1189 l 444 1175 l 444 1175 z "},"ó":{"ha":486,"x_min":0,"x_max":528,"o":"m 528 3 l 0 3 l 0 67 l 528 67 l 528 3 l 528 3 m 451 368 q 388 215 451 279 q 236 151 325 151 q 84 215 147 151 q 19 368 21 279 l 19 813 q 83 965 19 903 q 235 1028 146 1028 q 388 965 324 1028 q 451 813 451 901 l 451 368 l 451 368 m 385 368 l 385 813 q 340 918 385 874 q 235 963 296 963 q 131 918 175 963 q 86 813 86 874 l 86 368 q 130 261 86 306 q 236 217 174 217 q 341 261 297 217 q 385 368 385 306 l 385 368 m 396 1190 q 387 1167 396 1176 q 364 1154 378 1157 l 158 1083 l 142 1122 q 178 1144 153 1129 q 233 1175 204 1158 q 240 1179 238 1178 q 247 1183 243 1181 q 314 1218 282 1203 q 356 1233 346 1233 q 385 1221 374 1233 q 396 1190 396 1208 l 396 1190 z "},"ò":{"ha":486,"x_min":0,"x_max":528,"o":"m 528 3 l 0 3 l 0 67 l 528 67 l 528 3 l 528 3 m 451 368 q 388 215 451 279 q 236 151 325 151 q 84 215 147 151 q 19 368 21 279 l 19 813 q 83 965 19 903 q 235 1028 146 1028 q 388 965 324 1028 q 451 813 451 901 l 451 368 l 451 368 m 385 368 l 385 813 q 340 918 385 874 q 235 963 296 963 q 131 918 175 963 q 86 813 86 874 l 86 368 q 130 261 86 306 q 236 217 174 217 q 341 261 297 217 q 385 368 385 306 l 385 368 m 376 1136 l 358 1097 l 151 1168 q 130 1181 139 1171 q 121 1204 121 1190 q 132 1235 121 1222 q 161 1247 143 1247 q 203 1232 171 1247 q 271 1196 235 1217 q 277 1193 274 1194 q 283 1189 281 1192 q 339 1158 313 1172 q 376 1136 365 1143 l 376 1136 z "},"ô":{"ha":486,"x_min":0,"x_max":528,"o":"m 528 3 l 0 3 l 0 67 l 528 67 l 528 3 l 528 3 m 451 368 q 388 215 451 279 q 236 151 325 151 q 84 215 147 151 q 19 368 21 279 l 19 813 q 83 965 19 903 q 235 1028 146 1028 q 388 965 324 1028 q 451 813 451 901 l 451 368 l 451 368 m 385 368 l 385 813 q 340 918 385 874 q 235 963 296 963 q 131 918 175 963 q 86 813 86 874 l 86 368 q 130 261 86 306 q 236 217 174 217 q 341 261 297 217 q 385 368 385 306 l 385 368 m 363 1113 l 297 1113 l 240 1172 l 185 1113 l 117 1113 l 231 1232 l 251 1232 l 363 1113 l 363 1113 z "},"ö":{"ha":486,"x_min":0,"x_max":528,"o":"m 528 3 l 0 3 l 0 67 l 528 67 l 528 3 l 528 3 m 451 368 q 388 215 451 279 q 236 151 325 151 q 84 215 147 151 q 19 368 21 279 l 19 813 q 83 965 19 903 q 235 1028 146 1028 q 388 965 324 1028 q 451 813 451 901 l 451 368 l 451 368 m 385 368 l 385 813 q 340 918 385 874 q 235 963 296 963 q 131 918 175 963 q 86 813 86 874 l 86 368 q 130 261 86 306 q 236 217 174 217 q 341 261 297 217 q 385 368 385 306 l 385 368 m 215 1149 q 215 1142 215 1146 q 213 1135 214 1139 q 198 1115 207 1124 q 179 1104 189 1106 q 177 1104 178 1104 q 175 1104 176 1104 l 165 1104 q 159 1106 163 1104 q 151 1108 156 1107 q 138 1117 144 1111 q 128 1131 132 1124 q 125 1137 126 1133 q 124 1143 124 1140 l 124 1154 q 133 1176 124 1165 q 154 1190 143 1186 q 162 1194 158 1193 q 169 1194 165 1194 q 202 1181 189 1194 q 215 1149 215 1168 l 215 1149 m 347 1149 q 347 1142 347 1146 q 344 1135 346 1139 q 330 1115 339 1124 q 311 1104 321 1106 q 309 1104 310 1104 q 307 1104 308 1104 l 296 1104 q 289 1106 293 1104 q 282 1108 285 1107 q 269 1118 275 1113 q 260 1131 264 1124 q 257 1137 258 1133 q 256 1143 256 1140 l 256 1154 q 266 1177 256 1167 q 289 1192 276 1188 q 295 1194 292 1193 q 301 1194 299 1194 q 303 1194 303 1194 q 306 1194 304 1194 q 334 1180 321 1193 q 347 1149 347 1167 l 347 1149 z "},"õ":{"ha":486,"x_min":0,"x_max":528,"o":"m 528 3 l 0 3 l 0 67 l 528 67 l 528 3 l 528 3 m 451 368 q 388 215 451 279 q 236 151 325 151 q 84 215 147 151 q 19 368 21 279 l 19 813 q 83 965 19 903 q 235 1028 146 1028 q 388 965 324 1028 q 451 813 451 901 l 451 368 l 451 368 m 385 368 l 385 813 q 340 918 385 874 q 235 963 296 963 q 131 918 175 963 q 86 813 86 874 l 86 368 q 130 261 86 306 q 236 217 174 217 q 341 261 297 217 q 385 368 385 306 l 385 368 m 458 1175 q 390 1119 425 1135 q 317 1104 356 1104 q 271 1114 290 1104 q 235 1136 251 1124 q 229 1140 232 1138 q 224 1143 226 1142 q 195 1160 210 1153 q 163 1167 181 1167 q 118 1158 140 1167 q 76 1122 96 1149 l 28 1165 q 90 1216 56 1201 q 163 1231 124 1231 q 208 1222 189 1231 q 246 1201 228 1213 q 252 1197 249 1199 q 258 1192 256 1194 q 287 1177 272 1183 q 318 1171 301 1171 q 363 1180 342 1171 q 407 1215 385 1189 l 458 1175 l 458 1175 z "},"ú":{"ha":465,"x_min":7,"x_max":500,"o":"m 500 3 l 14 3 l 14 67 l 500 67 l 500 3 l 500 3 m 438 354 q 374 201 438 265 q 222 138 311 138 q 70 201 133 138 q 7 354 7 265 l 7 1017 l 71 1017 l 71 354 q 116 247 71 292 q 222 203 161 203 q 327 248 283 203 q 371 354 371 293 l 371 1017 l 438 1017 l 438 354 l 438 354 m 368 1190 q 359 1167 368 1176 q 336 1154 350 1157 l 131 1083 l 114 1122 q 151 1144 125 1129 q 206 1175 176 1158 q 213 1179 210 1178 q 219 1183 215 1181 q 286 1218 254 1203 q 328 1233 318 1233 q 357 1221 346 1233 q 368 1190 368 1208 l 368 1190 z "},"ù":{"ha":465,"x_min":7,"x_max":500,"o":"m 500 3 l 14 3 l 14 67 l 500 67 l 500 3 l 500 3 m 438 354 q 374 201 438 265 q 222 138 311 138 q 70 201 133 138 q 7 354 7 265 l 7 1017 l 71 1017 l 71 354 q 116 247 71 292 q 222 203 161 203 q 327 248 283 203 q 371 354 371 293 l 371 1017 l 438 1017 l 438 354 l 438 354 m 335 1136 l 317 1097 l 110 1168 q 88 1181 97 1171 q 79 1204 79 1190 q 90 1235 79 1222 q 119 1247 101 1247 q 161 1232 129 1247 q 229 1196 193 1217 q 235 1193 232 1194 q 242 1189 239 1192 q 297 1158 271 1172 q 335 1136 324 1143 l 335 1136 z "},"û":{"ha":465,"x_min":7,"x_max":500,"o":"m 500 3 l 14 3 l 14 67 l 500 67 l 500 3 l 500 3 m 438 354 q 374 201 438 265 q 222 138 311 138 q 70 201 133 138 q 7 354 7 265 l 7 1017 l 71 1017 l 71 354 q 116 247 71 292 q 222 203 161 203 q 327 248 283 203 q 371 354 371 293 l 371 1017 l 438 1017 l 438 354 l 438 354 m 339 1113 l 274 1113 l 217 1172 l 161 1113 l 93 1113 l 207 1232 l 228 1232 l 339 1113 l 339 1113 z "},"ü":{"ha":465,"x_min":7,"x_max":500,"o":"m 500 3 l 14 3 l 14 67 l 500 67 l 500 3 l 500 3 m 438 354 q 374 201 438 265 q 222 138 311 138 q 70 201 133 138 q 7 354 7 265 l 7 1017 l 71 1017 l 71 354 q 116 247 71 292 q 222 203 161 203 q 327 248 283 203 q 371 354 371 293 l 371 1017 l 438 1017 l 438 354 l 438 354 m 215 1149 q 215 1142 215 1146 q 213 1135 214 1139 q 198 1115 207 1124 q 179 1104 189 1106 q 177 1104 178 1104 q 175 1104 176 1104 l 165 1104 q 159 1106 163 1104 q 151 1108 156 1107 q 138 1117 144 1111 q 128 1131 132 1124 q 125 1137 126 1133 q 124 1143 124 1140 l 124 1154 q 133 1176 124 1165 q 154 1190 143 1186 q 162 1194 158 1193 q 169 1194 165 1194 q 202 1181 189 1194 q 215 1149 215 1168 l 215 1149 m 347 1149 q 347 1142 347 1146 q 344 1135 346 1139 q 330 1115 339 1124 q 311 1104 321 1106 q 309 1104 310 1104 q 307 1104 308 1104 l 296 1104 q 289 1106 293 1104 q 282 1108 285 1107 q 269 1118 275 1113 q 260 1131 264 1124 q 257 1137 258 1133 q 256 1143 256 1140 l 256 1154 q 266 1177 256 1167 q 289 1192 276 1188 q 295 1194 292 1193 q 301 1194 299 1194 q 303 1194 303 1194 q 306 1194 304 1194 q 334 1180 321 1193 q 347 1149 347 1167 l 347 1149 z "},"†":{"ha":368,"x_min":17,"x_max":351,"o":"m 351 751 l 281 682 l 231 731 l 215 731 l 215 47 l 185 0 l 153 47 l 153 731 l 136 731 l 88 682 l 17 751 l 88 822 l 136 772 l 153 772 l 153 1007 l 185 1042 l 215 1007 l 215 772 l 232 772 l 281 822 l 351 751 l 351 751 z "},"¢":{"ha":556,"x_min":54,"x_max":447,"o":"m 447 582 q 388 435 447 493 q 244 378 328 378 q 234 378 239 378 q 222 381 229 379 l 204 271 l 146 271 l 167 397 q 85 469 115 419 q 54 575 54 519 l 54 763 q 110 901 54 849 q 249 958 167 954 q 254 959 251 960 q 260 958 257 958 q 263 958 261 958 q 265 958 264 958 l 285 1067 l 343 1067 l 321 947 q 413 874 379 925 q 447 756 446 824 l 385 756 q 364 833 383 801 q 311 886 344 865 l 233 440 q 237 440 235 440 q 240 439 239 439 q 244 439 242 439 q 247 439 246 439 q 346 478 304 439 q 388 582 388 518 l 447 582 l 447 582 m 254 899 q 253 899 254 899 q 253 899 253 899 q 251 899 251 899 q 250 899 250 899 q 154 858 194 899 q 114 763 114 818 l 114 575 q 114 572 114 574 q 114 568 114 569 q 133 505 115 535 q 179 460 150 475 l 254 899 l 254 899 z "},"£":{"ha":729,"x_min":6,"x_max":736,"o":"m 736 778 q 681 648 736 708 q 551 576 625 588 l 551 644 q 641 703 611 660 q 671 803 671 747 q 624 902 671 864 q 522 944 578 940 q 517 944 519 944 q 511 944 514 944 q 402 888 435 944 q 356 765 369 832 q 348 713 351 739 q 340 665 344 688 q 340 654 340 660 q 338 643 339 649 l 435 643 l 435 574 l 322 574 l 269 321 q 313 297 289 311 q 363 268 336 282 q 393 250 378 258 q 425 235 408 242 q 487 209 456 219 q 544 199 518 199 q 549 199 547 199 q 554 199 551 199 q 619 221 588 201 q 672 272 651 240 l 732 243 q 650 163 700 193 q 546 132 600 132 q 462 153 506 132 q 372 200 418 175 q 315 230 344 215 q 256 254 286 244 q 214 167 246 200 q 121 135 182 135 q 39 174 69 135 q 6 260 8 214 q 6 265 6 263 q 6 268 6 267 q 45 350 6 319 q 131 383 85 381 q 135 383 133 383 q 139 383 138 383 q 147 383 143 383 q 153 382 150 382 q 182 372 168 379 q 207 357 196 365 l 254 574 l 169 574 l 169 643 l 269 643 q 272 656 271 650 q 274 669 274 663 q 277 687 275 678 q 281 704 279 696 q 342 917 300 824 q 536 1011 383 1011 q 675 945 622 1011 q 735 800 728 879 q 736 789 736 794 q 736 778 736 783 l 736 778 m 186 254 q 186 259 186 257 q 185 264 186 261 q 169 299 182 283 q 135 314 156 314 q 130 314 132 314 q 125 313 128 314 q 90 297 106 310 q 75 264 75 285 q 75 258 75 261 q 76 251 75 254 q 92 218 79 233 q 125 203 106 203 q 131 203 128 203 q 138 204 135 203 q 171 220 156 207 q 186 254 186 233 l 186 254 z "},"§":{"ha":564,"x_min":26,"x_max":538,"o":"m 538 472 q 536 454 538 464 q 533 435 535 444 q 510 378 526 406 q 471 332 493 350 q 513 278 496 310 q 535 211 531 246 q 536 202 536 207 q 536 193 536 197 q 536 188 536 190 q 536 182 536 185 q 483 57 532 114 q 363 0 435 0 l 50 0 l 50 63 l 350 63 q 440 99 407 63 q 474 192 474 136 q 416 293 474 264 q 283 343 358 322 q 267 347 275 344 q 250 351 258 350 q 97 417 167 375 q 26 569 26 460 q 28 588 26 578 q 31 607 29 597 q 54 664 38 636 q 94 710 71 692 q 53 759 69 729 q 31 821 36 789 q 28 835 29 828 q 28 849 28 842 q 81 986 28 931 q 215 1042 135 1042 l 514 1042 l 514 979 l 215 979 q 125 942 160 979 q 90 849 90 904 q 148 748 90 776 q 279 699 206 719 q 297 694 289 697 q 314 690 306 692 q 467 624 397 667 q 538 472 538 582 l 538 472 m 475 481 q 474 494 475 488 q 471 508 474 501 q 444 560 464 536 q 399 594 425 585 l 154 676 q 107 631 124 661 q 89 568 90 601 q 89 565 89 567 q 89 561 89 563 q 90 551 89 556 q 90 540 90 546 q 117 483 97 510 q 165 449 136 457 l 411 365 q 456 408 439 379 q 475 468 472 436 q 475 474 475 471 q 475 481 475 478 l 475 481 z "},"¶":{"ha":599,"x_min":28,"x_max":572,"o":"m 371 0 l 308 0 l 308 400 q 108 508 189 415 q 28 719 28 600 q 108 931 28 847 q 308 1040 188 1015 q 313 1041 311 1040 q 317 1042 314 1042 q 320 1042 318 1042 q 324 1042 322 1042 q 333 1041 328 1042 q 342 1040 338 1040 q 342 1040 342 1040 q 343 1040 343 1040 q 358 1040 350 1040 q 371 1040 365 1039 l 371 0 l 371 0 m 572 978 l 510 978 l 510 0 l 449 0 l 449 1042 l 572 1042 l 572 978 l 572 978 z "},"ß":{"ha":551,"x_min":25,"x_max":525,"o":"m 525 253 q 455 78 525 154 q 285 0 385 1 l 285 63 q 424 135 390 65 q 461 286 457 204 q 463 322 463 304 q 463 356 463 339 q 410 485 463 432 q 285 544 358 538 l 285 611 q 406 668 356 613 q 457 793 457 724 q 403 922 457 867 q 274 976 349 976 q 147 923 199 976 q 94 793 94 869 l 94 0 l 25 0 l 25 793 q 98 969 25 896 q 274 1042 171 1042 q 450 968 376 1042 q 524 793 524 894 q 489 667 524 725 q 394 576 454 608 q 509 442 493 517 q 525 265 525 367 q 525 259 525 263 q 525 253 525 256 l 525 253 z "},"®":{"ha":556,"x_min":3,"x_max":339,"o":"m 339 871 q 289 753 339 804 q 171 703 239 703 q 51 753 100 703 q 3 871 3 803 q 53 990 3 939 q 171 1040 103 1040 q 288 989 238 1040 q 339 871 339 938 l 339 871 m 300 871 q 262 962 300 924 q 171 1000 224 1000 q 79 963 117 1000 q 42 871 42 925 q 79 779 42 817 q 171 742 117 742 q 262 779 224 742 q 300 871 300 817 l 300 871 m 222 767 l 192 767 q 192 776 192 771 q 193 786 193 781 q 194 795 193 790 q 194 804 194 800 q 192 817 194 811 q 181 822 189 822 l 158 822 l 158 767 l 125 767 l 125 975 l 167 975 q 206 958 190 975 q 222 918 222 942 l 222 868 q 220 852 222 858 q 213 839 218 846 q 219 826 217 833 q 222 811 222 819 l 222 767 l 222 767 m 192 868 l 192 918 q 184 935 192 928 q 167 942 176 942 l 158 942 l 158 856 q 163 856 161 856 q 167 856 165 856 q 172 854 169 854 q 175 854 174 854 q 187 857 182 854 q 192 868 192 860 l 192 868 z "},"©":{"ha":556,"x_min":25,"x_max":529,"o":"m 529 253 q 455 74 529 149 q 278 0 381 0 q 100 74 174 0 q 25 253 26 149 l 25 789 q 99 967 25 893 q 276 1040 174 1040 q 454 966 379 1040 q 529 789 529 892 l 529 253 l 529 253 m 465 253 l 465 789 q 410 922 465 865 q 276 978 354 978 q 144 922 200 978 q 89 789 89 867 l 89 253 q 144 118 89 174 q 278 63 199 63 q 410 119 356 63 q 465 253 465 175 l 465 253 m 443 376 q 397 254 443 301 q 286 207 351 207 q 175 253 221 207 q 129 364 129 299 l 129 671 q 176 781 129 736 q 286 826 222 826 q 397 781 351 826 q 443 671 443 735 l 443 549 l 382 549 q 382 567 382 557 q 383 586 382 576 q 383 599 383 592 q 383 613 383 606 q 369 717 385 669 q 286 765 354 765 q 219 737 247 765 q 190 671 190 708 l 190 364 q 219 297 190 325 q 286 268 247 268 q 353 298 325 268 q 382 376 382 328 l 443 376 l 443 376 z "},"™":{"ha":463,"x_min":14,"x_max":431,"o":"m 172 1006 l 115 1006 l 115 686 l 72 686 l 72 1006 l 14 1006 l 14 1049 l 172 1049 l 172 1006 l 172 1006 m 431 686 l 388 686 l 388 1004 q 353 990 368 1001 q 338 954 338 978 l 338 788 l 296 788 l 296 954 q 281 990 296 978 q 247 1004 267 1001 l 247 686 l 201 686 l 201 1047 q 270 1042 243 1047 q 317 1014 297 1038 q 364 1042 336 1038 q 431 1049 392 1047 l 431 686 l 431 686 z "},"´":{"ha":307,"x_min":8,"x_max":286,"o":"m 286 1125 q 277 1102 286 1111 q 256 1090 268 1093 l 22 1010 l 8 1042 q 49 1066 19 1049 q 113 1103 78 1083 q 120 1106 117 1104 q 128 1111 124 1108 q 201 1149 167 1132 q 247 1167 236 1167 q 275 1154 264 1167 q 286 1125 286 1142 l 286 1125 z "},"¨":{"ha":278,"x_min":4,"x_max":247,"o":"m 94 1100 q 94 1094 94 1097 q 92 1086 93 1090 q 76 1065 86 1075 q 56 1056 67 1056 l 43 1056 q 37 1057 40 1056 q 31 1060 33 1058 q 17 1069 24 1063 q 8 1082 11 1075 q 5 1088 6 1085 q 4 1093 4 1090 l 4 1106 q 14 1128 4 1118 q 35 1142 24 1138 q 42 1144 39 1143 q 49 1144 46 1144 q 81 1131 67 1144 q 94 1100 94 1118 l 94 1100 m 247 1100 q 247 1094 247 1097 q 244 1086 246 1090 q 229 1065 239 1075 q 208 1056 219 1056 l 196 1056 q 190 1057 193 1056 q 183 1060 186 1058 q 170 1069 176 1063 q 161 1082 164 1075 q 158 1088 158 1085 q 157 1093 157 1090 l 157 1106 q 167 1128 157 1118 q 188 1142 176 1138 q 195 1144 192 1143 q 201 1144 199 1144 q 233 1131 219 1144 q 247 1100 247 1118 l 247 1100 z "},"≠":{"ha":694,"x_min":0,"x_max":0,"o":""},"Æ":{"ha":971,"x_min":44,"x_max":928,"o":"m 928 315 l 549 315 l 549 224 l 549 117 q 563 85 549 99 q 593 65 576 71 q 603 63 599 64 q 611 63 607 63 l 864 63 l 864 0 l 611 0 q 506 57 529 0 q 482 182 482 114 q 483 220 482 201 q 483 257 483 239 q 485 288 485 274 q 486 315 486 303 l 107 315 l 107 0 l 44 0 l 44 789 q 119 966 44 892 q 297 1040 193 1040 q 403 1017 356 1040 q 490 950 451 993 q 535 1016 501 990 q 611 1042 569 1042 l 864 1042 l 864 978 l 611 978 q 567 959 586 978 q 549 915 549 940 l 549 378 l 928 378 l 928 315 l 928 315 m 490 379 l 490 786 q 431 920 490 863 q 297 978 372 978 q 164 922 221 978 q 107 789 107 867 l 107 379 l 490 379 l 490 379 z "},"Ø":{"ha":592,"x_min":25,"x_max":565,"o":"m 565 1061 l 499 896 q 506 881 503 889 q 513 865 508 874 q 526 820 521 843 q 532 774 532 797 l 532 249 q 460 74 532 147 q 286 0 388 0 q 215 10 249 0 q 149 43 181 21 l 86 -111 l 25 -111 l 103 79 q 69 131 85 101 q 46 190 53 160 q 42 210 43 200 q 40 231 40 221 l 40 774 q 112 945 40 874 q 285 1017 183 1017 q 378 999 333 1017 q 456 947 422 981 l 504 1061 l 565 1061 l 565 1061 m 471 249 l 471 774 q 470 785 471 779 q 468 797 469 792 q 466 806 467 801 q 465 815 465 811 l 172 97 q 204 79 186 88 q 242 65 222 71 q 258 63 250 64 q 275 61 267 61 q 413 113 356 61 q 471 249 471 164 l 471 249 m 432 882 q 367 938 403 918 q 285 957 331 957 q 154 902 210 957 q 99 774 99 847 l 99 236 q 100 218 99 228 q 106 199 101 208 q 117 169 110 183 q 131 144 124 156 l 432 882 l 432 882 z "},"∞":{"ha":694,"x_min":0,"x_max":0,"o":""},"±":{"ha":556,"x_min":14,"x_max":535,"o":"m 535 114 l 14 114 l 14 178 l 535 178 l 535 114 l 535 114 m 535 489 l 306 489 l 306 261 l 242 261 l 242 489 l 14 489 l 14 553 l 242 553 l 242 782 l 306 782 l 306 553 l 535 553 l 535 489 l 535 489 z "},"≤":{"ha":694,"x_min":0,"x_max":0,"o":""},"≥":{"ha":694,"x_min":0,"x_max":0,"o":""},"¥":{"ha":556,"x_min":25,"x_max":531,"o":"m 531 768 q 467 601 531 675 q 310 517 403 528 l 310 469 l 458 469 l 458 407 l 310 407 l 310 347 l 457 347 l 457 286 l 310 286 l 310 0 l 246 0 l 246 286 l 97 286 l 97 347 l 246 347 l 246 407 l 99 407 l 99 469 l 246 469 l 246 517 q 89 601 153 528 q 25 768 25 675 l 25 1042 l 89 1042 q 88 997 89 1021 q 86 950 88 974 q 84 914 85 932 q 83 876 83 896 q 113 672 81 765 q 278 578 144 578 q 434 662 397 578 q 472 847 471 746 q 472 905 472 876 q 469 961 471 933 q 467 1003 468 983 q 467 1042 467 1024 l 531 1042 l 531 768 l 531 768 z "},"µ":{"ha":574,"x_min":14,"x_max":558,"o":"m 558 592 l 471 174 q 469 159 469 167 q 468 144 468 151 q 484 85 468 113 q 539 49 500 58 l 513 -11 q 453 18 479 -4 q 413 67 426 40 q 338 10 381 32 q 246 -11 294 -11 q 240 -11 243 -11 q 235 -11 238 -11 q 177 3 206 -8 q 129 38 149 15 l 78 -208 l 14 -211 l 186 594 l 247 592 q 230 513 242 565 q 206 401 218 461 q 203 390 204 396 q 200 379 201 385 q 172 242 185 307 q 160 157 160 178 q 184 83 160 113 q 256 53 208 53 q 278 55 267 53 q 301 63 290 57 q 366 101 336 75 q 401 160 396 128 l 496 594 l 558 592 l 558 592 z "},"∂":{"ha":694,"x_min":0,"x_max":0,"o":""},"Σ":{"ha":694,"x_min":0,"x_max":0,"o":""},"∏":{"ha":694,"x_min":0,"x_max":0,"o":""},"π":{"ha":694,"x_min":0,"x_max":0,"o":""},"∫":{"ha":694,"x_min":0,"x_max":0,"o":""},"ª":{"ha":231,"x_min":22,"x_max":217,"o":"m 206 565 l 28 565 l 28 615 l 206 615 l 206 565 l 206 565 m 217 664 l 168 664 l 168 768 l 71 768 l 71 664 l 22 664 l 22 938 q 51 1007 22 979 q 119 1035 79 1035 q 188 1006 160 1035 q 217 938 217 978 l 217 664 l 217 664 m 168 817 l 168 938 q 153 972 168 957 q 119 986 139 986 q 86 972 101 986 q 71 938 71 957 l 71 817 l 168 817 l 168 817 z "},"º":{"ha":231,"x_min":21,"x_max":221,"o":"m 213 558 l 21 558 l 21 622 l 213 622 l 213 558 l 213 558 m 221 751 q 192 683 221 711 q 124 654 164 654 q 56 683 83 654 q 26 751 28 711 l 26 928 q 55 997 26 968 q 124 1025 83 1025 q 192 997 164 1025 q 221 928 221 968 l 221 751 l 221 751 m 172 751 l 172 928 q 158 962 172 947 q 124 976 143 976 q 90 962 106 976 q 75 928 75 947 l 75 751 q 90 717 75 732 q 124 701 104 701 q 158 717 143 701 q 172 751 172 732 l 172 751 z "},"Ω":{"ha":694,"x_min":0,"x_max":0,"o":""},"æ":{"ha":771,"x_min":0,"x_max":806,"o":"m 806 3 l 0 3 l 0 67 l 806 67 l 806 3 l 806 3 m 751 407 l 436 407 l 436 339 l 429 339 l 436 339 l 436 250 q 447 227 436 238 q 469 213 457 217 q 476 212 472 213 q 482 211 479 211 l 699 211 l 699 146 l 482 146 q 391 194 413 146 q 368 301 369 243 q 368 335 368 318 q 369 368 368 353 q 370 389 369 379 q 371 407 371 399 l 69 407 l 69 146 l 4 146 l 4 807 q 68 960 4 897 q 221 1024 132 1024 q 308 1005 268 1024 q 379 954 347 986 q 420 1005 392 985 q 482 1025 449 1025 l 699 1025 l 699 957 l 482 957 q 450 944 464 957 q 436 913 436 931 l 436 474 l 751 474 l 751 407 l 751 407 m 375 475 l 375 806 q 328 911 375 865 q 221 957 281 957 q 115 913 161 957 q 69 807 69 868 l 69 475 l 375 475 l 375 475 z "},"ø":{"ha":494,"x_min":4,"x_max":542,"o":"m 542 3 l 139 3 l 139 67 l 542 67 l 542 3 l 542 3 m 503 1099 l 442 944 q 446 934 444 939 q 450 924 447 929 q 464 882 458 903 q 469 838 469 861 l 469 375 q 403 217 469 283 q 246 150 338 150 q 185 158 214 150 q 129 182 157 165 l 75 51 l 4 51 l 75 225 q 47 269 60 244 q 28 318 35 293 q 24 340 25 329 q 22 360 22 350 l 22 838 q 87 994 22 929 q 244 1058 151 1058 q 324 1044 286 1058 q 392 1004 361 1029 l 431 1099 l 503 1099 l 503 1099 m 400 375 l 400 838 q 400 840 400 839 q 400 842 400 840 q 400 842 400 842 q 400 844 400 843 l 154 244 q 178 232 165 238 q 204 222 190 226 q 220 219 213 221 q 235 218 228 218 q 351 261 303 218 q 400 375 400 304 l 400 375 m 365 932 q 310 975 340 960 q 244 990 281 990 q 134 944 181 990 q 88 838 88 899 l 88 365 q 89 353 88 360 q 92 339 90 346 q 99 319 94 329 q 107 301 103 310 l 365 932 l 365 932 z "},"¿":{"ha":544,"x_min":19,"x_max":514,"o":"m 514 178 q 435 6 514 72 q 257 -60 356 -60 q 85 19 151 -60 q 19 196 19 99 q 65 330 19 265 q 165 454 111 394 q 265 567 219 514 q 311 668 311 621 l 311 840 l 374 840 l 374 668 q 328 544 374 603 q 228 431 282 486 q 126 316 172 374 q 81 193 81 258 q 131 60 81 119 q 258 0 181 0 q 392 50 332 0 q 453 178 453 100 q 437 262 453 222 q 386 328 421 301 l 426 376 q 493 288 472 340 q 514 178 514 235 l 514 178 m 382 931 q 372 909 382 919 q 349 894 361 899 q 342 892 346 893 q 336 892 339 892 q 306 906 319 892 q 293 938 293 919 q 294 944 293 940 q 296 950 294 947 q 310 971 300 961 q 332 981 319 981 l 344 981 q 350 980 347 981 q 356 978 353 979 q 369 967 363 974 q 379 954 375 961 q 381 949 381 951 q 382 943 382 946 l 382 931 l 382 931 z "},"¡":{"ha":99,"x_min":8,"x_max":99,"o":"m 85 -203 l 21 -203 l 21 690 l 85 690 l 85 -203 l 85 -203 m 99 789 q 89 767 99 776 q 68 753 79 757 q 60 751 64 751 q 54 750 57 750 q 22 763 36 750 q 8 794 8 776 q 9 801 8 797 q 11 808 10 804 q 26 829 17 819 q 47 839 36 839 l 60 839 q 66 838 63 839 q 72 835 69 836 q 85 826 79 832 q 94 813 92 819 q 98 807 97 810 q 99 801 99 804 l 99 789 l 99 789 z "},"¬":{"ha":556,"x_min":14,"x_max":538,"o":"m 538 328 l 474 328 l 474 489 l 14 489 l 14 553 l 535 553 l 535 547 l 538 547 l 538 328 l 538 328 z "},"√":{"ha":694,"x_min":0,"x_max":0,"o":""},"ƒ":{"ha":604,"x_min":28,"x_max":578,"o":"m 578 986 q 478 949 522 985 q 419 861 435 914 l 346 582 l 440 582 l 440 531 l 332 531 l 236 167 q 160 49 218 94 q 28 0 101 3 l 28 56 q 125 93 81 57 q 182 181 169 129 l 275 531 l 171 531 l 171 582 l 288 582 l 365 876 q 444 994 385 950 q 578 1042 503 1039 l 578 986 l 578 986 z "},"≈":{"ha":694,"x_min":0,"x_max":0,"o":""},"∆":{"ha":694,"x_min":0,"x_max":0,"o":""},"«":{"ha":389,"x_min":10,"x_max":365,"o":"m 199 326 l 10 518 l 199 704 l 199 625 l 90 518 l 199 407 l 199 326 l 199 326 m 365 326 l 176 518 l 365 704 l 365 625 l 257 518 l 365 407 l 365 326 l 365 326 z "},"»":{"ha":389,"x_min":29,"x_max":385,"o":"m 218 518 l 29 326 l 29 407 l 138 518 l 29 625 l 29 704 l 218 518 l 218 518 m 385 518 l 196 326 l 196 407 l 304 518 l 196 625 l 196 704 l 385 518 l 385 518 z "},"…":{"ha":556,"x_min":46,"x_max":483,"o":"m 136 44 q 135 38 136 42 q 133 31 135 35 q 118 10 128 19 q 97 0 108 0 l 85 0 q 78 1 82 0 q 72 4 75 3 q 59 13 65 7 q 50 26 53 19 q 47 32 47 29 q 46 38 46 35 l 46 50 q 56 72 46 63 q 76 86 65 82 q 84 88 81 88 q 90 89 88 89 q 122 76 108 89 q 136 44 136 63 l 136 44 m 303 44 q 302 38 303 42 q 300 31 301 35 q 285 10 294 19 q 264 0 275 0 l 251 0 q 245 1 249 0 q 239 4 242 3 q 226 13 232 7 q 217 26 219 19 q 213 32 214 29 q 213 38 213 35 l 213 50 q 222 72 213 63 q 243 86 232 82 q 251 88 247 88 q 257 89 254 89 q 289 76 275 89 q 303 44 303 63 l 303 44 m 483 44 q 483 38 483 42 q 481 31 482 35 q 465 10 475 19 q 444 0 456 0 l 432 0 q 426 1 429 0 q 419 4 422 3 q 406 13 413 7 q 397 26 400 19 q 394 32 394 29 q 393 38 393 35 l 393 50 q 403 72 393 63 q 424 86 413 82 q 431 88 428 88 q 438 89 435 89 q 469 76 456 89 q 483 44 483 63 l 483 44 z "},"À":{"ha":556,"x_min":21,"x_max":525,"o":"m 525 3 l 463 3 l 463 319 l 83 319 l 83 3 l 21 3 l 21 792 q 94 971 21 897 q 272 1044 168 1044 q 450 969 375 1044 q 525 792 525 894 l 525 3 l 525 3 m 463 382 l 463 792 q 406 926 463 869 q 272 982 350 982 q 140 926 196 982 q 83 792 83 869 l 83 382 l 463 382 l 463 382 m 431 1083 l 417 1051 l 183 1132 q 162 1144 171 1135 q 153 1167 153 1153 q 164 1196 153 1183 q 192 1208 175 1208 q 238 1191 203 1208 q 311 1153 272 1174 q 319 1148 315 1150 q 326 1144 322 1146 q 390 1108 361 1125 q 431 1083 419 1090 l 431 1083 z "},"Ã":{"ha":556,"x_min":21,"x_max":525,"o":"m 525 3 l 463 3 l 463 319 l 83 319 l 83 3 l 21 3 l 21 792 q 94 971 21 897 q 272 1044 168 1044 q 450 969 375 1044 q 525 792 525 894 l 525 3 l 525 3 m 463 382 l 463 792 q 406 926 463 869 q 272 982 350 982 q 140 926 196 982 q 83 792 83 869 l 83 382 l 463 382 l 463 382 m 508 1136 q 439 1081 476 1097 q 357 1064 401 1064 q 304 1075 326 1064 q 261 1100 282 1086 q 255 1105 258 1103 q 247 1110 251 1107 q 215 1128 232 1119 q 176 1136 197 1136 q 122 1126 149 1136 q 75 1088 96 1115 l 31 1126 q 97 1179 60 1164 q 178 1194 135 1194 q 231 1183 208 1194 q 274 1160 254 1172 q 281 1155 278 1157 q 288 1150 285 1153 q 321 1133 304 1140 q 358 1125 338 1125 q 413 1135 386 1125 q 461 1172 439 1146 l 508 1136 l 508 1136 z "},"Õ":{"ha":556,"x_min":25,"x_max":529,"o":"m 529 253 q 455 74 529 149 q 278 0 381 0 q 100 74 174 0 q 25 253 26 149 l 25 789 q 99 967 25 893 q 276 1040 174 1040 q 454 966 379 1040 q 529 789 529 892 l 529 253 l 529 253 m 465 253 l 465 789 q 410 922 465 865 q 276 978 354 978 q 144 922 200 978 q 89 789 89 867 l 89 253 q 144 118 89 174 q 278 63 199 63 q 410 119 356 63 q 465 253 465 175 l 465 253 m 522 1136 q 453 1081 490 1097 q 371 1064 415 1064 q 318 1075 340 1064 q 275 1100 296 1086 q 269 1105 272 1103 q 261 1110 265 1107 q 228 1128 246 1119 q 190 1136 211 1136 q 136 1126 163 1136 q 89 1088 110 1115 l 44 1126 q 111 1179 74 1164 q 192 1194 149 1194 q 245 1183 222 1194 q 288 1160 268 1172 q 295 1155 292 1157 q 301 1150 299 1153 q 335 1133 318 1140 q 372 1125 351 1125 q 426 1135 400 1125 q 475 1172 453 1146 l 522 1136 l 522 1136 z "},"Œ":{"ha":925,"x_min":17,"x_max":903,"o":"m 903 317 l 524 317 l 524 118 q 538 86 524 100 q 571 67 553 72 q 579 65 575 65 q 588 64 583 64 l 839 64 l 839 1 l 588 1 q 510 27 544 1 q 467 96 476 53 q 378 25 428 50 q 269 0 329 0 q 90 74 164 0 q 17 253 17 147 l 17 788 q 90 966 17 892 q 268 1040 164 1040 q 378 1015 329 1040 q 465 944 426 989 q 509 1014 474 986 q 588 1042 544 1042 l 839 1042 l 839 978 l 588 978 q 578 977 583 978 q 568 974 574 976 q 538 954 551 968 q 524 924 524 940 l 524 379 l 903 379 l 903 317 l 903 317 m 458 253 l 458 788 q 402 922 458 865 q 268 978 346 978 q 135 922 192 978 q 79 788 79 865 l 79 253 q 135 118 79 174 q 269 63 190 63 q 403 118 347 63 q 458 253 458 174 l 458 253 z "},"œ":{"ha":785,"x_min":0,"x_max":792,"o":"m 792 3 l 0 3 l 0 67 l 792 67 l 792 3 l 792 3 m 756 396 l 442 396 l 442 238 q 453 214 442 224 q 478 201 465 204 q 483 200 481 200 q 488 200 485 200 l 703 200 l 703 133 l 488 133 q 424 153 453 133 q 385 206 396 174 q 313 151 353 171 q 224 132 272 132 q 70 196 133 132 q 7 349 7 260 l 7 793 q 70 947 7 883 q 222 1010 133 1010 q 311 990 272 1010 q 383 938 350 971 q 424 990 394 969 q 488 1011 453 1011 l 703 1011 l 703 944 l 488 944 q 481 944 485 944 q 475 942 478 943 q 452 928 463 938 q 442 906 442 918 l 442 461 l 756 461 l 756 396 l 756 396 m 374 349 l 374 793 q 328 899 374 854 q 222 944 283 944 q 117 899 163 944 q 72 793 72 854 l 72 349 q 117 242 72 286 q 224 199 161 199 q 329 242 285 199 q 374 349 374 286 l 374 349 z "},"—":{"ha":1111,"x_min":28,"x_max":1069,"o":"m 1069 489 l 28 489 l 28 553 l 1069 553 l 1069 489 l 1069 489 z "},"“":{"ha":308,"x_min":11,"x_max":297,"o":"m 22 819 q 14 831 17 825 q 11 844 11 838 q 14 855 13 850 q 18 865 15 860 l 125 1088 l 158 1075 q 146 1025 156 1061 q 125 949 136 989 q 120 930 122 939 q 115 911 118 921 q 95 850 104 876 q 79 817 86 824 q 67 809 74 811 q 53 807 60 807 q 35 810 43 807 q 22 819 28 814 l 22 819 m 161 819 q 153 831 156 825 q 150 844 150 838 q 153 855 151 850 q 157 865 154 860 l 264 1088 l 297 1075 q 285 1025 294 1061 q 264 949 275 989 q 259 930 261 939 q 254 911 257 921 q 234 850 243 876 q 218 817 225 824 q 206 809 213 811 q 192 807 199 807 q 174 810 182 807 q 161 819 167 814 l 161 819 z "},"”":{"ha":308,"x_min":17,"x_max":303,"o":"m 153 1075 q 161 1063 158 1069 q 164 1050 164 1057 q 161 1040 163 1044 q 157 1029 160 1035 l 50 807 l 17 819 q 29 869 19 833 q 50 946 39 906 q 55 965 53 956 q 60 983 57 974 q 80 1044 71 1018 q 96 1078 89 1071 q 108 1085 101 1083 q 122 1088 115 1088 q 140 1085 132 1088 q 153 1075 147 1082 l 153 1075 m 292 1075 q 300 1063 297 1069 q 303 1050 303 1057 q 300 1040 301 1044 q 296 1029 299 1035 l 189 807 l 156 819 q 168 869 158 833 q 189 946 178 906 q 194 965 192 956 q 199 983 196 974 q 219 1044 210 1018 q 235 1078 228 1071 q 247 1085 240 1083 q 261 1088 254 1088 q 278 1085 271 1088 q 292 1075 286 1082 l 292 1075 z "},"‘":{"ha":154,"x_min":11,"x_max":158,"o":"m 22 806 q 14 817 17 811 q 11 831 11 824 q 14 841 13 836 q 18 851 15 846 l 125 1074 l 158 1061 q 146 1011 156 1047 q 125 935 136 975 q 120 916 122 925 q 115 897 118 907 q 95 836 104 863 q 79 803 86 810 q 67 795 74 797 q 53 793 60 793 q 35 797 43 793 q 22 806 28 800 l 22 806 z "},"’":{"ha":154,"x_min":17,"x_max":164,"o":"m 153 1061 q 161 1049 158 1056 q 164 1036 164 1043 q 161 1026 163 1031 q 157 1015 160 1021 l 50 793 l 17 806 q 29 856 19 819 q 50 932 39 892 q 55 951 53 942 q 60 969 57 960 q 80 1031 71 1004 q 96 1064 89 1057 q 108 1072 101 1069 q 122 1074 115 1074 q 140 1071 132 1074 q 153 1061 147 1068 l 153 1061 z "},"÷":{"ha":556,"x_min":14,"x_max":535,"o":"m 331 364 q 330 358 331 361 q 328 350 329 354 q 313 329 322 339 q 292 319 303 319 l 279 319 q 273 321 276 319 q 267 324 269 322 q 253 333 260 326 q 244 346 247 339 q 241 351 242 349 q 240 357 240 354 l 240 369 q 250 392 240 382 q 271 406 260 401 q 278 408 275 407 q 285 408 282 408 q 317 395 303 408 q 331 364 331 382 l 331 364 m 535 489 l 14 489 l 14 553 l 535 553 l 535 489 l 535 489 m 331 669 q 330 663 331 667 q 328 656 329 660 q 313 635 322 644 q 292 625 303 625 l 279 625 q 273 626 276 625 q 267 629 269 628 q 253 638 260 632 q 244 651 247 644 q 241 657 242 654 q 240 663 240 660 l 240 675 q 250 697 240 688 q 271 711 260 707 q 278 713 275 713 q 285 714 282 714 q 317 701 303 714 q 331 669 331 688 l 331 669 z "},"◊":{"ha":694,"x_min":0,"x_max":0,"o":""},"ÿ":{"ha":479,"x_min":0,"x_max":528,"o":"m 528 3 l 0 3 l 0 67 l 528 67 l 528 3 l 528 3 m 453 611 q 400 469 453 531 q 269 396 347 407 l 269 133 l 203 133 l 203 396 q 72 469 125 407 q 18 611 18 532 l 18 1011 l 86 1011 l 86 611 q 130 504 86 549 q 235 460 174 460 q 341 505 297 460 q 385 611 385 550 l 385 1011 l 453 1011 l 453 611 l 453 611 m 217 1053 q 216 1047 217 1050 q 214 1039 215 1043 q 199 1018 208 1028 q 178 1008 189 1008 l 168 1008 q 163 1009 165 1008 q 156 1011 160 1010 q 142 1022 149 1015 q 132 1035 136 1028 q 129 1041 131 1038 q 128 1047 128 1044 l 128 1057 q 138 1080 128 1069 q 158 1094 147 1090 q 166 1097 163 1096 q 172 1097 169 1097 q 203 1084 190 1097 q 217 1053 217 1071 l 217 1053 m 344 1053 q 344 1047 344 1050 q 342 1039 343 1043 q 327 1019 336 1028 q 308 1008 318 1010 q 306 1008 307 1008 q 304 1008 306 1008 l 294 1008 q 288 1010 292 1008 q 282 1013 285 1011 q 269 1022 275 1017 q 260 1035 264 1028 q 257 1041 258 1038 q 256 1047 256 1044 l 256 1057 q 265 1080 256 1069 q 286 1094 275 1090 q 292 1097 289 1096 q 299 1097 296 1097 q 331 1084 317 1097 q 344 1053 344 1071 l 344 1053 z "},"Ÿ":{"ha":556,"x_min":25,"x_max":531,"o":"m 531 568 q 467 401 531 475 q 310 317 404 328 l 310 0 l 247 0 l 247 317 q 89 401 153 328 q 25 568 25 475 l 25 1042 l 89 1042 l 89 568 q 144 433 89 489 q 278 378 200 378 q 411 434 356 378 q 467 568 467 490 l 467 1042 l 531 1042 l 531 568 l 531 568 m 247 1100 q 247 1094 247 1097 q 244 1086 246 1090 q 229 1065 239 1075 q 208 1056 219 1056 l 196 1056 q 190 1057 193 1056 q 183 1060 186 1058 q 170 1069 176 1063 q 161 1082 164 1075 q 158 1088 158 1085 q 157 1093 157 1090 l 157 1106 q 167 1128 157 1118 q 188 1142 176 1138 q 195 1144 192 1143 q 201 1144 199 1144 q 233 1131 219 1144 q 247 1100 247 1118 l 247 1100 m 400 1100 q 399 1094 400 1097 q 397 1086 399 1090 q 382 1065 392 1075 q 361 1056 372 1056 l 349 1056 q 342 1057 346 1056 q 336 1060 339 1058 q 323 1069 329 1063 q 314 1082 317 1075 q 310 1088 311 1085 q 310 1093 310 1090 l 310 1106 q 319 1128 310 1118 q 340 1142 329 1138 q 348 1144 344 1143 q 354 1144 351 1144 q 386 1131 372 1144 q 400 1100 400 1118 l 400 1100 z "},"∕":{"ha":694,"x_min":0,"x_max":0,"o":""},"¤":{"ha":735,"x_min":3,"x_max":753,"o":"m 175 392 l 175 253 q 231 118 175 174 q 364 63 286 63 q 497 119 442 63 q 553 253 553 175 l 617 253 q 542 74 617 149 q 364 0 468 0 q 186 74 260 0 q 113 253 113 149 l 113 392 l 3 392 l 58 456 l 113 456 l 113 503 l 3 503 l 58 567 l 111 567 l 111 789 q 186 967 111 893 q 364 1042 261 1042 q 542 967 467 1042 q 617 789 617 892 l 617 738 l 557 738 q 557 741 557 739 q 557 746 557 743 q 557 792 558 761 q 544 857 556 822 q 490 940 531 903 q 364 978 449 978 q 231 922 286 978 q 175 789 175 867 l 175 567 l 753 567 l 697 503 l 175 503 l 175 456 l 753 456 l 697 392 l 175 392 l 175 392 z "},"‹":{"ha":207,"x_min":10,"x_max":199,"o":"m 199 326 l 10 518 l 199 704 l 199 625 l 90 518 l 199 407 l 199 326 l 199 326 z "},"›":{"ha":207,"x_min":15,"x_max":204,"o":"m 204 518 l 15 326 l 15 407 l 124 518 l 15 625 l 15 704 l 204 518 l 204 518 z "},"":{"ha":694,"x_min":0,"x_max":0,"o":""},"":{"ha":694,"x_min":0,"x_max":0,"o":""},"‡":{"ha":374,"x_min":17,"x_max":357,"o":"m 357 349 l 286 278 l 236 326 l 215 326 l 215 47 l 185 0 l 153 47 l 153 326 l 143 326 l 94 278 l 24 349 l 94 418 l 142 368 l 153 368 l 153 732 l 138 732 l 88 682 l 17 753 l 88 824 l 136 774 l 153 774 l 153 1007 l 185 1042 l 215 1007 l 215 774 l 232 774 l 282 824 l 351 753 l 282 682 l 232 732 l 215 732 l 215 368 l 236 368 l 286 418 l 357 349 l 357 349 z "},"∙":{"ha":278,"x_min":101,"x_max":192,"o":"m 192 531 q 191 524 192 528 q 189 517 190 521 q 174 496 183 506 q 153 486 164 486 l 140 486 q 134 488 138 486 q 128 490 131 489 q 115 499 121 493 q 106 513 108 506 q 102 518 103 515 q 101 524 101 521 l 101 536 q 111 558 101 549 q 132 572 121 568 q 140 574 136 574 q 146 575 143 575 q 178 562 164 575 q 192 531 192 549 l 192 531 z "},"‚":{"ha":154,"x_min":3,"x_max":150,"o":"m 139 103 q 147 91 144 97 q 150 78 150 85 q 147 67 149 72 q 143 57 146 63 l 36 -165 l 3 -153 q 15 -101 6 -137 q 36 -25 25 -65 q 41 -7 39 -15 q 46 11 43 1 q 66 72 57 46 q 82 106 75 99 q 94 113 88 111 q 108 115 101 115 q 126 113 118 115 q 139 103 133 110 l 139 103 z "},"„":{"ha":308,"x_min":17,"x_max":303,"o":"m 153 103 q 161 91 158 97 q 164 78 164 85 q 161 67 163 72 q 157 57 160 63 l 50 -165 l 17 -153 q 29 -101 19 -137 q 50 -25 39 -65 q 55 -7 53 -15 q 60 11 57 1 q 80 72 71 46 q 96 106 89 99 q 108 113 101 111 q 122 115 115 115 q 140 113 132 115 q 153 103 147 110 l 153 103 m 292 103 q 300 91 297 97 q 303 78 303 85 q 300 67 301 72 q 296 57 299 63 l 189 -165 l 156 -153 q 168 -101 158 -137 q 189 -25 178 -65 q 194 -7 192 -15 q 199 11 196 1 q 219 72 210 46 q 235 106 228 99 q 247 113 240 111 q 261 115 254 115 q 278 113 271 115 q 292 103 286 110 l 292 103 z "},"‰":{"ha":893,"x_min":40,"x_max":853,"o":"m 528 149 q 484 44 528 89 q 379 0 440 0 q 274 44 317 0 q 231 149 231 88 q 274 254 231 210 q 379 299 318 299 q 484 254 440 299 q 528 149 528 210 l 528 149 m 472 149 q 444 214 472 186 q 379 242 415 242 q 313 215 340 242 q 286 149 286 188 q 313 83 286 110 q 379 56 340 56 q 444 83 417 56 q 472 149 472 110 l 472 149 m 853 149 q 809 44 853 89 q 704 0 765 0 q 599 44 642 0 q 556 149 556 88 q 599 254 556 210 q 704 299 643 299 q 809 254 765 299 q 853 149 853 210 l 853 149 m 797 149 q 769 214 797 186 q 704 242 740 242 q 638 215 665 242 q 611 149 611 188 q 638 83 611 110 q 704 56 665 56 q 769 83 742 56 q 797 149 797 110 l 797 149 m 500 1040 l 138 1 l 75 1 l 436 1040 l 500 1040 l 500 1040 m 339 893 q 295 788 339 832 q 190 744 251 744 q 84 788 128 744 q 40 893 40 832 q 85 998 40 954 q 190 1042 129 1042 q 294 998 250 1042 q 339 893 339 954 l 339 893 m 282 893 q 255 958 282 931 q 190 986 228 986 q 124 959 151 986 q 97 893 97 932 q 124 827 97 854 q 190 800 151 800 q 255 827 228 800 q 282 893 282 854 l 282 893 z "},"Â":{"ha":556,"x_min":21,"x_max":525,"o":"m 525 3 l 463 3 l 463 319 l 83 319 l 83 3 l 21 3 l 21 792 q 94 971 21 897 q 272 1044 168 1044 q 450 969 375 1044 q 525 792 525 894 l 525 3 l 525 3 m 463 382 l 463 792 q 406 926 463 869 q 272 982 350 982 q 140 926 196 982 q 83 792 83 869 l 83 382 l 463 382 l 463 382 m 397 1076 l 342 1076 l 272 1150 l 204 1076 l 149 1076 l 264 1200 l 282 1200 l 397 1076 l 397 1076 z "},"Ê":{"ha":486,"x_min":22,"x_max":465,"o":"m 465 315 l 86 315 l 86 118 q 101 84 86 99 q 135 65 117 69 q 142 65 138 65 q 149 64 146 64 l 401 64 l 401 0 l 149 0 q 59 37 96 0 q 22 126 22 74 l 22 914 q 60 1004 22 967 q 149 1042 97 1042 l 401 1042 l 401 978 l 149 978 q 140 977 144 978 q 131 975 136 976 q 100 955 114 969 q 86 924 86 940 l 86 379 l 465 379 l 465 315 l 465 315 m 369 1076 l 314 1076 l 244 1150 l 176 1076 l 121 1076 l 236 1200 l 254 1200 l 369 1076 l 369 1076 z "},"Á":{"ha":556,"x_min":21,"x_max":525,"o":"m 525 3 l 463 3 l 463 319 l 83 319 l 83 3 l 21 3 l 21 792 q 94 971 21 897 q 272 1044 168 1044 q 450 969 375 1044 q 525 792 525 894 l 525 3 l 525 3 m 463 382 l 463 792 q 406 926 463 869 q 272 982 350 982 q 140 926 196 982 q 83 792 83 869 l 83 382 l 463 382 l 463 382 m 439 1167 q 430 1144 439 1153 q 408 1132 421 1135 l 175 1051 l 161 1083 q 201 1108 172 1090 q 265 1144 231 1125 q 273 1148 269 1146 q 281 1153 276 1150 q 354 1191 319 1174 q 400 1208 389 1208 q 428 1196 417 1208 q 439 1167 439 1183 l 439 1167 z "},"Ë":{"ha":486,"x_min":22,"x_max":465,"o":"m 465 315 l 86 315 l 86 118 q 101 84 86 99 q 135 65 117 69 q 142 65 138 65 q 149 64 146 64 l 401 64 l 401 0 l 149 0 q 59 37 96 0 q 22 126 22 74 l 22 914 q 60 1004 22 967 q 149 1042 97 1042 l 401 1042 l 401 978 l 149 978 q 140 977 144 978 q 131 975 136 976 q 100 955 114 969 q 86 924 86 940 l 86 379 l 465 379 l 465 315 l 465 315 m 206 1100 q 205 1094 206 1097 q 203 1086 204 1090 q 188 1065 197 1075 q 167 1056 178 1056 l 154 1056 q 148 1057 151 1056 q 142 1060 144 1058 q 128 1069 135 1063 q 119 1082 122 1075 q 116 1088 117 1085 q 115 1093 115 1090 l 115 1106 q 125 1128 115 1118 q 146 1142 135 1138 q 153 1144 150 1143 q 160 1144 157 1144 q 192 1131 178 1144 q 206 1100 206 1118 l 206 1100 m 358 1100 q 358 1094 358 1097 q 356 1086 357 1090 q 340 1065 350 1075 q 319 1056 331 1056 l 307 1056 q 301 1057 304 1056 q 294 1060 297 1058 q 281 1069 288 1063 q 272 1082 275 1075 q 269 1088 269 1085 q 268 1093 268 1090 l 268 1106 q 278 1128 268 1118 q 299 1142 288 1138 q 306 1144 303 1143 q 313 1144 310 1144 q 344 1131 331 1144 q 358 1100 358 1118 l 358 1100 z "},"È":{"ha":486,"x_min":22,"x_max":465,"o":"m 465 315 l 86 315 l 86 118 q 101 84 86 99 q 135 65 117 69 q 142 65 138 65 q 149 64 146 64 l 401 64 l 401 0 l 149 0 q 59 37 96 0 q 22 126 22 74 l 22 914 q 60 1004 22 967 q 149 1042 97 1042 l 401 1042 l 401 978 l 149 978 q 140 977 144 978 q 131 975 136 976 q 100 955 114 969 q 86 924 86 940 l 86 379 l 465 379 l 465 315 l 465 315 m 389 1097 l 375 1065 l 142 1146 q 120 1158 129 1149 q 111 1181 111 1167 q 122 1210 111 1197 q 150 1222 133 1222 q 196 1205 161 1222 q 269 1167 231 1188 q 277 1162 274 1164 q 285 1158 281 1160 q 349 1122 319 1139 q 389 1097 378 1104 l 389 1097 z "},"Í":{"ha":104,"x_min":-89,"x_max":189,"o":"m 81 0 l 17 0 l 17 1042 l 81 1042 l 81 0 l 81 0 m 189 1181 q 180 1158 189 1167 q 158 1146 171 1149 l -75 1065 l -89 1097 q -47 1122 -76 1104 q 15 1158 -18 1139 q 23 1162 19 1160 q 31 1167 26 1164 q 104 1205 69 1188 q 150 1222 139 1222 q 178 1210 167 1222 q 189 1181 189 1197 l 189 1181 z "},"Î":{"ha":104,"x_min":-87,"x_max":161,"o":"m 67 0 l 3 0 l 3 1042 l 67 1042 l 67 0 l 67 0 m 161 1076 l 106 1076 l 36 1150 l -32 1076 l -87 1076 l 28 1200 l 46 1200 l 161 1076 l 161 1076 z "},"Ï":{"ha":104,"x_min":-87,"x_max":156,"o":"m 67 0 l 3 0 l 3 1042 l 67 1042 l 67 0 l 67 0 m 3 1099 q 2 1092 3 1096 q 0 1085 1 1089 q -14 1064 -4 1074 q -35 1054 -24 1054 l -49 1054 q -53 1056 -50 1054 q -60 1058 -57 1057 q -73 1067 -67 1061 q -82 1081 -79 1074 q -85 1086 -85 1083 q -86 1092 -86 1089 l -87 1104 q -76 1126 -86 1117 q -56 1140 -67 1136 q -48 1142 -51 1142 q -42 1143 -44 1143 q -10 1130 -24 1143 q 3 1099 3 1117 l 3 1099 m 156 1099 q 155 1092 156 1096 q 153 1085 154 1089 q 138 1064 147 1074 q 117 1054 128 1054 l 104 1054 q 98 1056 101 1054 q 92 1058 94 1057 q 78 1067 85 1061 q 69 1081 72 1074 q 66 1086 67 1083 q 65 1092 65 1089 l 65 1104 q 75 1126 65 1117 q 96 1140 85 1136 q 103 1142 100 1142 q 110 1143 107 1143 q 142 1130 128 1143 q 156 1099 156 1117 l 156 1099 z "},"Ì":{"ha":125,"x_min":-96,"x_max":181,"o":"m 94 0 l 31 0 l 31 1042 l 94 1042 l 94 0 l 94 0 m 181 1097 l 167 1065 l -67 1146 q -87 1158 -78 1149 q -96 1181 -96 1167 q -85 1210 -96 1197 q -57 1222 -74 1222 q -12 1205 -46 1222 q 61 1167 22 1188 q 69 1162 65 1164 q 76 1158 72 1160 q 140 1122 111 1139 q 181 1097 169 1104 l 181 1097 z "},"Ó":{"ha":556,"x_min":25,"x_max":529,"o":"m 529 253 q 455 74 529 149 q 278 0 381 0 q 100 74 174 0 q 25 253 26 149 l 25 789 q 99 967 25 893 q 276 1040 174 1040 q 454 966 379 1040 q 529 789 529 892 l 529 253 l 529 253 m 465 253 l 465 789 q 410 922 465 865 q 276 978 354 978 q 144 922 200 978 q 89 789 89 867 l 89 253 q 144 118 89 174 q 278 63 199 63 q 410 119 356 63 q 465 253 465 175 l 465 253 m 439 1167 q 430 1144 439 1153 q 408 1132 421 1135 l 175 1051 l 161 1083 q 201 1108 172 1090 q 265 1144 231 1125 q 273 1148 269 1146 q 281 1153 276 1150 q 354 1191 319 1174 q 400 1208 389 1208 q 428 1196 417 1208 q 439 1167 439 1183 l 439 1167 z "},"Ô":{"ha":556,"x_min":25,"x_max":529,"o":"m 529 253 q 455 74 529 149 q 278 0 381 0 q 100 74 174 0 q 25 253 26 149 l 25 789 q 99 967 25 893 q 276 1040 174 1040 q 454 966 379 1040 q 529 789 529 892 l 529 253 l 529 253 m 465 253 l 465 789 q 410 922 465 865 q 276 978 354 978 q 144 922 200 978 q 89 789 89 867 l 89 253 q 144 118 89 174 q 278 63 199 63 q 410 119 356 63 q 465 253 465 175 l 465 253 m 411 1076 l 356 1076 l 286 1150 l 218 1076 l 163 1076 l 278 1200 l 296 1200 l 411 1076 l 411 1076 z "},"":{"ha":694,"x_min":0,"x_max":0,"o":""},"Ò":{"ha":694,"x_min":0,"x_max":0,"o":""},"Ú":{"ha":554,"x_min":25,"x_max":529,"o":"m 529 253 q 455 74 529 149 q 278 0 381 0 q 100 74 174 0 q 26 253 26 149 l 25 1042 l 88 1042 l 88 253 q 144 118 88 174 q 278 63 200 63 q 410 119 356 63 q 465 253 465 175 l 465 1042 l 529 1042 l 529 253 l 529 253 m 439 1167 q 430 1144 439 1153 q 408 1132 421 1135 l 175 1051 l 161 1083 q 201 1108 172 1090 q 265 1144 231 1125 q 273 1148 269 1146 q 281 1153 276 1150 q 354 1191 319 1174 q 400 1208 389 1208 q 428 1196 417 1208 q 439 1167 439 1183 l 439 1167 z "},"Û":{"ha":554,"x_min":25,"x_max":529,"o":"m 529 253 q 455 74 529 149 q 278 0 381 0 q 100 74 174 0 q 26 253 26 149 l 25 1042 l 88 1042 l 88 253 q 144 118 88 174 q 278 63 200 63 q 410 119 356 63 q 465 253 465 175 l 465 1042 l 529 1042 l 529 253 l 529 253 m 411 1076 l 356 1076 l 286 1150 l 218 1076 l 163 1076 l 278 1200 l 296 1200 l 411 1076 l 411 1076 z "},"Ù":{"ha":554,"x_min":25,"x_max":529,"o":"m 529 253 q 455 74 529 149 q 278 0 381 0 q 100 74 174 0 q 26 253 26 149 l 25 1042 l 88 1042 l 88 253 q 144 118 88 174 q 278 63 200 63 q 410 119 356 63 q 465 253 465 175 l 465 1042 l 529 1042 l 529 253 l 529 253 m 389 1097 l 375 1065 l 142 1146 q 120 1158 129 1149 q 111 1181 111 1167 q 122 1210 111 1197 q 150 1222 133 1222 q 196 1205 161 1222 q 269 1167 231 1188 q 277 1162 274 1164 q 285 1158 281 1160 q 349 1122 319 1139 q 389 1097 378 1104 l 389 1097 z "},"ı":{"ha":694,"x_min":0,"x_max":0,"o":""},"˜":{"ha":278,"x_min":-6,"x_max":274,"o":"m 274 1028 l 200 1028 l 133 1099 l 68 1028 l -6 1028 l 122 1165 l 146 1165 l 274 1028 l 274 1028 z "},"ˆ":{"ha":674,"x_min":100,"x_max":578,"o":"m 578 1081 q 508 1025 546 1042 q 426 1008 471 1008 q 374 1019 396 1008 q 331 1044 351 1031 q 324 1049 328 1047 q 317 1054 321 1051 q 284 1072 301 1064 q 246 1081 267 1081 q 192 1070 218 1081 q 144 1032 165 1060 l 100 1071 q 167 1124 129 1108 q 247 1139 204 1139 q 301 1128 278 1139 q 343 1104 324 1117 q 351 1099 347 1101 q 357 1094 354 1097 q 390 1077 374 1085 q 428 1069 407 1069 q 482 1080 456 1069 q 531 1117 508 1090 l 578 1081 l 578 1081 z "},"ˉ":{"ha":278,"x_min":0,"x_max":285,"o":"m 285 1072 l 0 1072 l 0 1136 l 285 1136 l 285 1072 l 285 1072 z "},"˘":{"ha":694,"x_min":0,"x_max":0,"o":""},"˙":{"ha":694,"x_min":0,"x_max":0,"o":""},"˚":{"ha":694,"x_min":0,"x_max":0,"o":""},"¸":{"ha":278,"x_min":86,"x_max":232,"o":"m 232 -147 q 194 -222 232 -196 q 110 -249 156 -249 l 93 -250 l 107 -203 q 157 -189 135 -200 q 179 -146 179 -178 q 162 -114 179 -122 q 124 -104 144 -106 q 112 -103 118 -103 q 100 -103 106 -103 q 93 -101 97 -101 q 86 -101 89 -101 l 126 13 l 181 13 l 157 -57 q 213 -85 194 -64 q 232 -146 232 -107 l 232 -147 z "},"ʺ":{"ha":694,"x_min":0,"x_max":0,"o":""},"˛":{"ha":694,"x_min":0,"x_max":0,"o":""},"ˇ":{"ha":694,"x_min":0,"x_max":0,"o":""},"Ł":{"ha":694,"x_min":0,"x_max":0,"o":""},"ł":{"ha":694,"x_min":0,"x_max":0,"o":""},"Š":{"ha":556,"x_min":25,"x_max":531,"o":"m 531 521 l 468 521 q 469 558 468 538 q 471 599 469 578 q 473 653 472 625 q 474 711 474 682 q 435 895 471 811 q 278 979 399 979 q 144 924 200 979 q 89 790 89 868 l 89 490 q 118 455 89 468 q 192 429 147 442 q 244 417 217 424 q 301 401 272 410 q 447 332 381 378 q 514 189 514 286 q 514 181 514 185 q 513 174 514 178 q 456 54 507 108 q 338 0 406 0 l 25 0 l 25 64 l 325 64 q 416 101 382 64 q 450 193 450 139 q 449 209 450 201 q 444 225 447 217 q 417 275 436 251 q 374 307 399 299 l 76 407 q 38 440 50 417 q 25 490 25 463 l 25 790 q 100 967 25 893 q 278 1042 175 1042 q 456 967 381 1042 q 531 790 531 893 l 531 521 l 531 521 m 456 1239 l 297 1069 l 274 1069 l 115 1239 l 192 1239 l 286 1140 l 379 1239 l 456 1239 l 456 1239 z "},"š":{"ha":472,"x_min":0,"x_max":514,"o":"m 514 3 l 0 3 l 0 67 l 514 67 l 514 3 l 514 3 m 438 593 l 372 593 q 373 626 372 608 q 375 663 374 644 q 376 705 375 683 q 378 747 378 726 q 349 903 376 832 q 221 974 321 974 q 115 929 160 974 q 71 824 71 885 l 71 575 q 95 544 71 556 q 157 524 119 533 q 201 514 178 519 q 247 501 224 508 q 369 444 314 482 q 424 325 424 406 q 424 322 424 324 q 424 317 424 319 q 376 210 421 258 q 271 161 332 161 l 4 161 l 4 228 l 260 228 q 331 257 304 228 q 357 328 357 286 q 356 340 357 333 q 353 353 356 346 q 332 390 347 372 q 297 415 317 408 l 50 499 q 15 528 26 508 q 4 575 4 549 l 4 824 q 68 976 4 913 q 221 1039 132 1039 q 374 976 310 1039 q 438 824 438 913 l 438 593 l 438 593 m 385 1203 l 239 1049 l 214 1049 l 71 1203 l 151 1203 l 228 1124 l 301 1203 l 385 1203 l 385 1203 z "},"Ž":{"ha":694,"x_min":0,"x_max":0,"o":""},"ž":{"ha":694,"x_min":0,"x_max":0,"o":""},"¦":{"ha":104,"x_min":3,"x_max":67,"o":"m 67 -278 l 3 -278 l 3 403 l 67 403 l 67 -278 l 67 -278 m 67 500 l 3 500 l 3 1111 l 67 1111 l 67 500 l 67 500 z "},"Ð":{"ha":651,"x_min":29,"x_max":622,"o":"m 622 253 q 548 74 622 149 q 369 0 474 0 l 117 0 l 117 511 l 29 511 l 29 572 l 117 572 l 117 1042 l 369 1042 q 547 967 472 1042 q 621 789 621 892 l 622 253 l 622 253 m 558 253 l 558 789 q 503 923 558 867 q 369 979 447 979 l 181 979 l 181 572 l 264 572 l 264 511 l 181 511 l 181 63 l 369 63 q 503 119 447 63 q 558 253 558 175 l 558 253 z "},"ð":{"ha":507,"x_min":0,"x_max":556,"o":"m 556 3 l 0 3 l 0 67 l 556 67 l 556 3 l 556 3 m 465 375 q 401 223 465 286 q 249 160 336 160 q 97 224 160 160 q 35 378 35 289 q 101 533 35 474 q 258 592 168 592 q 269 591 264 592 q 281 590 275 590 q 290 588 285 589 q 301 585 296 586 l 157 836 l 42 836 l 42 900 l 119 900 q 107 922 119 900 q 81 971 94 944 q 53 1017 65 996 q 40 1039 40 1039 l 114 1039 q 126 1017 114 1039 q 154 971 139 996 q 181 922 168 944 q 193 900 193 900 l 396 900 l 396 836 l 232 836 l 435 485 q 453 446 446 467 q 464 404 461 425 q 465 389 464 396 q 465 375 465 382 l 465 375 m 399 376 q 355 482 399 438 q 249 526 311 526 q 144 483 189 526 q 100 378 100 439 q 144 271 100 315 q 249 226 188 226 q 354 270 310 226 q 399 376 399 314 l 399 376 z "},"Ý":{"ha":694,"x_min":0,"x_max":0,"o":""},"ý":{"ha":694,"x_min":0,"x_max":0,"o":""},"Þ":{"ha":460,"x_min":21,"x_max":439,"o":"m 439 535 q 367 388 439 433 q 208 315 294 342 q 172 305 190 310 q 136 294 153 300 q 109 288 122 292 q 83 279 96 283 l 83 0 l 21 0 l 21 1042 l 83 1042 l 83 724 q 97 724 88 724 q 119 725 107 725 q 161 726 138 726 q 208 726 185 726 q 275 722 243 725 q 324 708 307 718 q 408 639 376 681 q 439 535 439 597 l 439 535 m 375 531 q 342 623 375 585 q 251 661 308 661 l 83 661 l 83 346 l 300 419 q 347 453 328 428 q 372 507 365 478 q 374 519 374 513 q 375 531 375 525 l 375 531 z "},"þ":{"ha":425,"x_min":0,"x_max":458,"o":"m 458 3 l 0 3 l 0 67 l 458 67 l 458 3 l 458 3 m 400 604 q 340 479 400 519 q 207 417 279 439 q 172 406 189 411 q 136 396 154 401 q 121 391 129 393 q 106 386 113 389 l 106 153 l 39 153 l 39 1032 l 106 1032 l 106 768 q 115 768 110 768 q 128 769 121 768 q 163 770 143 769 q 204 769 183 771 q 260 766 233 769 q 300 754 286 763 q 374 694 347 729 q 400 604 400 658 l 400 604 m 333 600 q 308 672 333 643 q 238 701 282 701 l 106 701 l 106 457 l 275 515 q 310 540 296 521 q 331 579 325 558 q 333 590 332 585 q 333 600 333 594 l 333 600 z "},"−":{"ha":556,"x_min":14,"x_max":535,"o":"m 535 489 l 14 489 l 14 553 l 535 553 l 535 489 l 535 489 z "},"×":{"ha":556,"x_min":60,"x_max":488,"o":"m 488 471 l 318 300 l 486 128 l 444 86 l 275 256 l 103 86 l 61 128 l 231 299 l 60 471 l 101 513 l 274 343 l 446 513 l 488 471 l 488 471 z "},"¹":{"ha":139,"x_min":11,"x_max":79,"o":"m 79 667 l 31 667 l 31 989 l 11 989 l 11 1038 l 63 1038 l 79 1038 l 79 667 l 79 667 z "},"²":{"ha":231,"x_min":10,"x_max":210,"o":"m 210 942 q 206 913 210 926 q 193 888 201 900 l 93 713 l 208 713 l 208 667 l 58 667 l 10 667 l 156 918 q 158 924 157 921 q 161 931 160 926 q 162 936 161 933 q 163 942 163 939 q 148 976 163 961 q 114 990 133 990 q 80 976 94 990 q 65 942 65 961 q 65 937 65 939 q 67 932 65 935 q 77 911 69 921 q 100 894 85 901 l 78 854 q 32 891 47 868 q 17 940 17 914 q 44 1009 17 981 q 113 1038 72 1038 q 181 1010 153 1038 q 210 942 210 982 l 210 942 z "},"³":{"ha":231,"x_min":1,"x_max":199,"o":"m 199 768 q 170 699 199 728 q 101 671 142 671 q 33 701 63 671 q 4 782 4 731 l 53 782 q 67 736 51 753 q 101 719 83 719 q 140 739 132 719 q 150 782 149 758 q 150 792 150 786 q 150 801 150 797 q 133 836 150 821 q 88 850 117 851 l 88 865 l 88 900 q 133 914 115 900 q 150 947 150 928 q 135 981 150 967 q 101 994 121 994 q 74 984 88 994 q 54 953 61 974 l 1 953 q 43 1020 15 997 q 101 1043 71 1043 q 170 1015 142 1043 q 199 947 199 988 q 190 906 199 925 q 165 875 181 888 q 194 830 189 856 q 199 768 199 804 l 199 768 z "},"½":{"ha":556,"x_min":31,"x_max":544,"o":"m 544 407 q 541 378 544 392 q 532 353 538 365 q 526 341 529 347 q 518 328 522 335 l 360 53 l 540 53 l 540 -1 l 322 -1 l 264 -4 l 475 367 q 482 387 479 376 q 485 407 485 397 q 460 464 485 440 q 404 488 436 488 q 348 463 372 488 q 324 407 324 439 q 324 402 324 404 q 324 397 324 400 q 339 362 326 379 q 375 332 351 344 l 347 281 q 286 336 307 304 q 265 406 265 368 q 306 505 265 464 q 404 546 346 546 q 503 506 461 546 q 544 407 544 465 l 544 407 m 483 1111 l 94 0 l 31 0 l 419 1111 l 483 1111 l 483 1111 m 144 474 l 86 474 l 86 963 l 56 963 l 56 1022 l 125 1022 l 144 1022 l 144 474 l 144 474 z "},"¼":{"ha":556,"x_min":31,"x_max":518,"o":"m 518 154 l 464 154 l 464 -1 l 404 -1 l 404 157 l 233 157 l 333 464 l 396 464 l 314 215 l 404 215 l 404 547 l 464 547 l 464 215 l 518 215 l 518 154 l 518 154 m 483 1111 l 94 0 l 31 0 l 419 1111 l 483 1111 l 483 1111 m 144 474 l 86 474 l 86 963 l 56 963 l 56 1022 l 125 1022 l 144 1022 l 144 474 l 144 474 z "},"¾":{"ha":556,"x_min":1,"x_max":539,"o":"m 518 154 l 464 154 l 464 -1 l 404 -1 l 404 157 l 233 157 l 333 464 l 396 464 l 314 215 l 404 215 l 404 547 l 464 547 l 464 215 l 518 215 l 518 154 l 518 154 m 539 1111 l 150 0 l 86 0 l 475 1111 l 539 1111 l 539 1111 m 283 893 q 267 831 283 858 q 226 783 251 803 q 274 715 267 753 q 282 621 282 676 q 241 522 282 563 q 143 481 200 481 q 44 524 86 481 q 3 635 1 567 l 63 635 q 86 567 61 592 q 143 542 111 542 q 208 574 193 542 q 224 644 222 606 q 224 658 224 651 q 224 671 224 664 q 199 729 224 706 q 143 754 175 753 q 140 754 142 754 q 136 754 138 754 q 131 754 133 754 q 128 754 128 754 l 128 814 q 197 837 169 814 q 224 893 224 860 q 199 948 224 924 q 143 972 175 972 q 95 955 117 972 q 64 907 74 938 l 1 907 q 57 999 18 968 q 143 1029 96 1029 q 242 990 200 1029 q 283 893 283 950 l 283 893 z "},"₣":{"ha":694,"x_min":0,"x_max":0,"o":""},"Ğ":{"ha":694,"x_min":0,"x_max":0,"o":""},"ğ":{"ha":694,"x_min":0,"x_max":0,"o":""},"İ":{"ha":694,"x_min":0,"x_max":0,"o":""},"Ş":{"ha":694,"x_min":0,"x_max":0,"o":""},"ş":{"ha":694,"x_min":0,"x_max":0,"o":""},"Ć":{"ha":694,"x_min":0,"x_max":0,"o":""},"ć":{"ha":694,"x_min":0,"x_max":0,"o":""},"Č":{"ha":694,"x_min":0,"x_max":0,"o":""},"č":{"ha":694,"x_min":0,"x_max":0,"o":""},"đ":{"ha":694,"x_min":0,"x_max":0,"o":""},"→":{"ha":694,"x_min":0,"x_max":0,"o":""},"⌂":{"ha":694,"x_min":0,"x_max":0,"o":""},"–":{"ha":556,"x_min":14,"x_max":535,"o":"m 535 489 l 14 489 l 14 553 l 535 553 l 535 489 l 535 489 z "},"­":{"ha":694,"x_min":0,"x_max":0,"o":""},"■":{"ha":694,"x_min":0,"x_max":0,"o":""},"•":{"ha":417,"x_min":56,"x_max":367,"o":"m 336 453 q 281 406 314 422 q 211 389 247 389 q 164 397 188 389 q 119 419 140 404 q 72 476 89 443 q 56 544 56 510 q 63 592 56 568 q 86 636 71 615 q 143 684 110 668 q 211 700 176 700 q 258 692 235 700 q 303 669 282 685 q 351 614 335 647 q 367 544 367 581 q 359 497 367 521 q 336 453 351 474 l 336 453 z "},"¯":{"ha":694,"x_min":0,"x_max":0,"o":""},"°":{"ha":347,"x_min":26,"x_max":325,"o":"m 325 893 q 281 788 325 832 q 176 744 238 744 q 70 788 114 744 q 26 893 26 832 q 71 998 26 954 q 176 1042 115 1042 q 281 998 236 1042 q 325 893 325 954 l 325 893 m 268 893 q 241 958 268 931 q 176 986 214 986 q 110 959 138 986 q 83 893 83 932 q 110 827 83 854 q 176 800 138 800 q 241 827 214 800 q 268 893 268 854 l 268 893 z "},"·":{"ha":694,"x_min":0,"x_max":0,"o":""},"‗":{"ha":694,"x_min":0,"x_max":0,"o":""},"‼":{"ha":694,"x_min":0,"x_max":0,"o":""},"ⁿ":{"ha":694,"x_min":0,"x_max":0,"o":""},"₧":{"ha":694,"x_min":0,"x_max":0,"o":""},"Γ":{"ha":694,"x_min":0,"x_max":0,"o":""},"Θ":{"ha":694,"x_min":0,"x_max":0,"o":""},"Φ":{"ha":694,"x_min":0,"x_max":0,"o":""},"α":{"ha":694,"x_min":0,"x_max":0,"o":""},"δ":{"ha":694,"x_min":0,"x_max":0,"o":""},"ε":{"ha":694,"x_min":0,"x_max":0,"o":""},"σ":{"ha":694,"x_min":0,"x_max":0,"o":""},"τ":{"ha":694,"x_min":0,"x_max":0,"o":""},"φ":{"ha":694,"x_min":0,"x_max":0,"o":""},"←":{"ha":694,"x_min":0,"x_max":0,"o":""},"↑":{"ha":694,"x_min":0,"x_max":0,"o":""},"↓":{"ha":694,"x_min":0,"x_max":0,"o":""},"↔":{"ha":694,"x_min":0,"x_max":0,"o":""},"↕":{"ha":694,"x_min":0,"x_max":0,"o":""},"↨":{"ha":694,"x_min":0,"x_max":0,"o":""},"∟":{"ha":694,"x_min":0,"x_max":0,"o":""},"∩":{"ha":694,"x_min":0,"x_max":0,"o":""},"≡":{"ha":694,"x_min":0,"x_max":0,"o":""},"⌐":{"ha":694,"x_min":0,"x_max":0,"o":""},"⌠":{"ha":694,"x_min":0,"x_max":0,"o":""},"⌡":{"ha":694,"x_min":0,"x_max":0,"o":""},"▬":{"ha":694,"x_min":0,"x_max":0,"o":""},"○":{"ha":694,"x_min":0,"x_max":0,"o":""},"▲":{"ha":694,"x_min":0,"x_max":0,"o":""},"►":{"ha":694,"x_min":0,"x_max":0,"o":""},"▼":{"ha":694,"x_min":0,"x_max":0,"o":""},"◄":{"ha":694,"x_min":0,"x_max":0,"o":""},"◘":{"ha":694,"x_min":0,"x_max":0,"o":""},"◙":{"ha":694,"x_min":0,"x_max":0,"o":""},"Ř":{"ha":694,"x_min":0,"x_max":0,"o":""},"▀":{"ha":694,"x_min":0,"x_max":0,"o":""},"▄":{"ha":694,"x_min":0,"x_max":0,"o":""},"█":{"ha":694,"x_min":0,"x_max":0,"o":""},"▌":{"ha":694,"x_min":0,"x_max":0,"o":""},"▐":{"ha":694,"x_min":0,"x_max":0,"o":""},"░":{"ha":694,"x_min":0,"x_max":0,"o":""},"▒":{"ha":694,"x_min":0,"x_max":0,"o":""},"▓":{"ha":694,"x_min":0,"x_max":0,"o":""},"☺":{"ha":694,"x_min":0,"x_max":0,"o":""},"☻":{"ha":694,"x_min":0,"x_max":0,"o":""},"☼":{"ha":694,"x_min":0,"x_max":0,"o":""},"♀":{"ha":694,"x_min":0,"x_max":0,"o":""},"♂":{"ha":694,"x_min":0,"x_max":0,"o":""},"♠":{"ha":694,"x_min":0,"x_max":0,"o":""},"♣":{"ha":694,"x_min":0,"x_max":0,"o":""},"♥":{"ha":694,"x_min":0,"x_max":0,"o":""},"♦":{"ha":694,"x_min":0,"x_max":0,"o":""},"♪":{"ha":694,"x_min":0,"x_max":0,"o":""},"♫":{"ha":694,"x_min":0,"x_max":0,"o":""},"Ă":{"ha":694,"x_min":0,"x_max":0,"o":""},"ă":{"ha":694,"x_min":0,"x_max":0,"o":""},"Ą":{"ha":694,"x_min":0,"x_max":0,"o":""},"ą":{"ha":694,"x_min":0,"x_max":0,"o":""},"Ď":{"ha":694,"x_min":0,"x_max":0,"o":""},"ď":{"ha":694,"x_min":0,"x_max":0,"o":""},"Đ":{"ha":694,"x_min":0,"x_max":0,"o":""},"Ę":{"ha":694,"x_min":0,"x_max":0,"o":""},"ę":{"ha":694,"x_min":0,"x_max":0,"o":""},"Ě":{"ha":694,"x_min":0,"x_max":0,"o":""},"ě":{"ha":694,"x_min":0,"x_max":0,"o":""},"Ĺ":{"ha":694,"x_min":0,"x_max":0,"o":""},"ĺ":{"ha":694,"x_min":0,"x_max":0,"o":""},"Ľ":{"ha":694,"x_min":0,"x_max":0,"o":""},"ľ":{"ha":694,"x_min":0,"x_max":0,"o":""},"Ń":{"ha":694,"x_min":0,"x_max":0,"o":""},"ń":{"ha":694,"x_min":0,"x_max":0,"o":""},"Ň":{"ha":694,"x_min":0,"x_max":0,"o":""},"ň":{"ha":694,"x_min":0,"x_max":0,"o":""},"Ő":{"ha":694,"x_min":0,"x_max":0,"o":""},"ő":{"ha":694,"x_min":0,"x_max":0,"o":""},"Ŕ":{"ha":694,"x_min":0,"x_max":0,"o":""},"ŕ":{"ha":694,"x_min":0,"x_max":0,"o":""},"ř":{"ha":694,"x_min":0,"x_max":0,"o":""},"Ś":{"ha":694,"x_min":0,"x_max":0,"o":""},"ś":{"ha":694,"x_min":0,"x_max":0,"o":""},"Ţ":{"ha":694,"x_min":0,"x_max":0,"o":""},"ţ":{"ha":694,"x_min":0,"x_max":0,"o":""},"Ť":{"ha":694,"x_min":0,"x_max":0,"o":""},"ť":{"ha":694,"x_min":0,"x_max":0,"o":""},"Ů":{"ha":694,"x_min":0,"x_max":0,"o":""},"ů":{"ha":694,"x_min":0,"x_max":0,"o":""},"ű":{"ha":694,"x_min":0,"x_max":0,"o":""},"Ű":{"ha":694,"x_min":0,"x_max":0,"o":""},"Ź":{"ha":694,"x_min":0,"x_max":0,"o":""},"ź":{"ha":694,"x_min":0,"x_max":0,"o":""},"Ż":{"ha":694,"x_min":0,"x_max":0,"o":""},"ż":{"ha":694,"x_min":0,"x_max":0,"o":""},"Ŀ":{"ha":694,"x_min":0,"x_max":0,"o":""},"ŀ":{"ha":694,"x_min":0,"x_max":0,"o":""},"─":{"ha":694,"x_min":0,"x_max":0,"o":""},"│":{"ha":694,"x_min":0,"x_max":0,"o":""},"┌":{"ha":694,"x_min":0,"x_max":0,"o":""},"┐":{"ha":694,"x_min":0,"x_max":0,"o":""},"└":{"ha":694,"x_min":0,"x_max":0,"o":""},"┘":{"ha":694,"x_min":0,"x_max":0,"o":""},"├":{"ha":694,"x_min":0,"x_max":0,"o":""},"┤":{"ha":694,"x_min":0,"x_max":0,"o":""},"┬":{"ha":694,"x_min":0,"x_max":0,"o":""},"┴":{"ha":694,"x_min":0,"x_max":0,"o":""},"┼":{"ha":694,"x_min":0,"x_max":0,"o":""},"═":{"ha":694,"x_min":0,"x_max":0,"o":""},"║":{"ha":694,"x_min":0,"x_max":0,"o":""},"╒":{"ha":694,"x_min":0,"x_max":0,"o":""},"╓":{"ha":694,"x_min":0,"x_max":0,"o":""},"╔":{"ha":694,"x_min":0,"x_max":0,"o":""},"╕":{"ha":694,"x_min":0,"x_max":0,"o":""},"╖":{"ha":694,"x_min":0,"x_max":0,"o":""},"╗":{"ha":694,"x_min":0,"x_max":0,"o":""},"╘":{"ha":694,"x_min":0,"x_max":0,"o":""},"╙":{"ha":694,"x_min":0,"x_max":0,"o":""},"╚":{"ha":694,"x_min":0,"x_max":0,"o":""},"╛":{"ha":694,"x_min":0,"x_max":0,"o":""},"╜":{"ha":694,"x_min":0,"x_max":0,"o":""},"╝":{"ha":694,"x_min":0,"x_max":0,"o":""},"╞":{"ha":694,"x_min":0,"x_max":0,"o":""},"╟":{"ha":694,"x_min":0,"x_max":0,"o":""},"╠":{"ha":694,"x_min":0,"x_max":0,"o":""},"╡":{"ha":694,"x_min":0,"x_max":0,"o":""},"╢":{"ha":694,"x_min":0,"x_max":0,"o":""},"╣":{"ha":694,"x_min":0,"x_max":0,"o":""},"╤":{"ha":694,"x_min":0,"x_max":0,"o":""},"╥":{"ha":694,"x_min":0,"x_max":0,"o":""},"╦":{"ha":694,"x_min":0,"x_max":0,"o":""},"╧":{"ha":694,"x_min":0,"x_max":0,"o":""},"╨":{"ha":694,"x_min":0,"x_max":0,"o":""},"╩":{"ha":694,"x_min":0,"x_max":0,"o":""},"╪":{"ha":694,"x_min":0,"x_max":0,"o":""},"╫":{"ha":694,"x_min":0,"x_max":0,"o":""},"╬":{"ha":694,"x_min":0,"x_max":0,"o":""}}}
